<?xml version="1.0" standalone="no"?>
<!DOCTYPE svg PUBLIC "-//W3C//DTD SVG 20010904//EN"
 "http://www.w3.org/TR/2001/REC-SVG-20010904/DTD/svg10.dtd">
<svg version="1.0" xmlns="http://www.w3.org/2000/svg"
 width="1024.000000pt" height="1024.000000pt" viewBox="0 0 1024.000000 1024.000000"
 preserveAspectRatio="xMidYMid meet">

<g transform="translate(0.000000,1024.000000) scale(0.100000,-0.100000)"
fill="#000000" stroke="none">
<path d="M3979 8534 c-47 -54 -69 -154 -69 -312 l0 -102 -49 0 c-87 0 -112 -9
-128 -47 -16 -40 -11 -84 31 -253 40 -158 39 -150 18 -150 -41 0 -80 -22 -92
-51 -26 -61 26 -213 112 -327 38 -50 48 -71 48 -102 0 -60 17 -182 47 -332
l27 -136 -51 -46 c-81 -73 -102 -153 -84 -313 16 -151 80 -276 169 -333 20
-13 24 -27 33 -130 14 -155 40 -255 101 -380 73 -150 156 -229 370 -350 l77
-43 3 -86 c2 -47 2 -88 0 -90 -7 -12 -26 24 -37 71 -10 47 -14 53 -35 50 -26
-4 -86 -36 -115 -61 -48 -43 -296 -158 -755 -351 -107 -45 -209 -91 -227 -102
-86 -51 -319 -628 -428 -1059 -52 -204 -99 -466 -120 -669 -8 -74 -23 -202
-34 -285 -34 -245 -26 -391 29 -539 44 -116 139 -225 235 -270 76 -35 104 -46
160 -65 l60 -20 -480 0 c-264 -1 -714 -2 -1000 -4 l-520 -2 -3 -27 -3 -28
3844 0 c2114 0 3892 -3 3950 -6 59 -4 104 -11 101 -15 -3 -5 -1787 -9 -3965
-9 l-3960 0 -42 -21 c-57 -30 -182 -157 -207 -210 -40 -89 -23 -124 70 -144
98 -21 7313 -21 7411 -1 129 28 214 88 366 259 l51 57 145 0 c119 0 148 3 161
16 20 20 20 66 1 104 -14 27 -20 29 -95 36 l-80 7 0 1076 0 1077 35 13 c82 29
113 136 59 201 -50 58 -115 75 -175 45 -23 -13 -34 -13 -52 -4 -20 11 -494
328 -708 475 -85 57 -86 59 -77 89 10 36 2 101 -17 131 -17 27 -92 64 -129 64
-45 0 -102 -38 -121 -81 -59 -130 72 -258 211 -207 28 10 36 9 51 -4 24 -21
423 -298 583 -405 69 -46 130 -88 137 -93 7 -6 16 -10 21 -10 20 0 42 -39 42
-76 0 -21 7 -52 15 -68 13 -25 15 -171 15 -1122 0 -1071 0 -1094 -19 -1104
-13 -6 -143 -10 -354 -10 -314 0 -335 1 -332 18 2 9 18 139 36 287 26 215 36
275 51 296 15 19 21 50 25 124 6 88 4 99 -12 111 -15 11 -89 14 -361 14 -199
0 -353 -4 -368 -10 -26 -9 -26 -10 -26 -124 0 -112 0 -115 27 -134 26 -19 27
-23 57 -301 l32 -281 -302 0 -302 0 -4 30 c-3 22 0 31 13 35 9 3 36 19 59 36
51 37 78 94 117 239 24 94 27 121 26 255 -3 294 -94 790 -218 1185 -103 331
-262 731 -384 970 -65 129 -54 122 -481 307 -177 77 -343 163 -480 247 -64 41
-145 88 -179 106 -68 37 -99 76 -76 97 8 7 31 22 52 34 103 57 234 183 296
285 65 107 102 258 123 495 l6 76 51 18 c145 52 233 230 225 452 -5 141 -41
200 -131 220 -19 4 -26 10 -23 22 39 133 56 250 65 428 9 171 9 173 41 220 52
79 101 193 107 248 11 103 -29 133 -207 160 -55 8 -102 15 -104 15 -2 0 -6 26
-8 58 -6 66 -45 168 -96 257 -133 225 -401 328 -1007 385 -60 6 -276 13 -480
17 -355 6 -371 5 -386 -13z m16 -425 c4 -17 2 -30 -6 -34 -8 -5 -10 -4 -5 3 4
7 3 12 -2 12 -16 0 -25 133 -16 233 l8 92 7 -140 c4 -77 10 -152 14 -166z
m1474 250 c76 -25 186 -84 229 -123 46 -42 132 -152 132 -170 0 -5 -13 9 -28
30 -56 77 -188 176 -292 220 -36 15 -67 31 -70 34 -3 4 -12 10 -20 13 -30 11
12 7 49 -4z m-808 -884 c52 -7 119 -21 149 -29 80 -23 276 -31 400 -16 183 21
302 27 406 22 l102 -5 5 -141 c4 -120 10 -161 40 -276 20 -74 47 -168 61 -208
l25 -73 -97 8 c-176 15 -366 8 -492 -16 -115 -23 -144 -35 -188 -75 -19 -17
-44 -23 -130 -31 l-107 -10 -43 47 c-38 41 -51 48 -115 63 -98 23 -327 31
-466 16 -63 -7 -115 -10 -117 -9 -2 2 17 65 41 140 54 169 65 228 74 398 l6
135 50 24 c102 50 230 62 396 36z m-721 -466 c20 -134 24 -176 16 -168 -4 3
-46 289 -46 308 0 2 2 2 5 -1 3 -3 14 -65 25 -139z m27 -241 c-2 -13 -4 -3 -4
22 0 25 2 35 4 23 2 -13 2 -33 0 -45z m662 -88 c55 -7 83 -17 108 -36 54 -41
63 -73 53 -186 -20 -242 -79 -291 -345 -292 -149 0 -192 12 -224 65 -29 47
-72 238 -78 345 l-6 92 59 7 c32 3 66 8 74 9 35 8 291 5 359 -4z m1136 3 l48
-6 -6 -91 c-8 -107 -49 -295 -74 -339 -23 -39 -89 -63 -217 -78 -96 -11 -219
-2 -278 20 -40 15 -78 73 -108 164 -53 155 -49 217 14 276 54 50 111 60 352
61 122 0 243 -3 269 -7z m331 -9 c44 -29 55 -66 55 -178 -1 -178 -53 -292
-160 -349 -29 -16 -54 -27 -55 -25 -1 1 -1 38 2 81 4 77 5 78 28 73 34 -9 90
30 114 80 22 45 27 138 9 178 -14 30 -60 50 -95 42 -25 -7 -26 -5 -19 21 10
40 53 93 76 93 11 0 31 -7 45 -16z m-2142 -40 c3 -9 6 -38 6 -65 l0 -49 -38 6
c-57 9 -72 -11 -72 -96 0 -57 4 -73 23 -95 12 -14 34 -26 49 -27 30 -3 38 -30
37 -133 l0 -60 -34 38 c-61 69 -85 152 -85 292 0 92 14 136 54 173 40 36 51
39 60 16z m1921 -484 c-20 -229 -21 -234 -49 -249 -12 -7 -41 -42 -64 -79 -23
-37 -46 -73 -50 -80 -7 -10 -28 1 -85 44 -76 57 -83 67 -70 112 5 21 10 23 40
17 28 -5 41 -1 70 21 55 42 34 50 -127 46 -80 -2 -162 1 -192 8 -73 15 -124
42 -120 62 1 9 -12 26 -30 39 l-33 23 23 -26 c29 -32 19 -58 -31 -85 -47 -25
-262 -31 -320 -9 -63 24 -71 43 -38 97 41 66 49 100 62 264 6 83 13 152 15
154 2 2 34 6 71 8 81 6 82 5 107 -87 26 -99 74 -213 103 -244 44 -47 104 -68
219 -74 143 -7 256 19 360 82 41 25 77 102 110 235 14 58 28 110 32 115 14 22
13 -216 -3 -394z m-1767 264 c55 -225 93 -271 240 -295 83 -14 275 1 334 25
33 14 96 76 129 126 16 24 16 23 8 -34 -11 -66 -30 -109 -67 -149 -22 -23 -24
-29 -12 -37 10 -6 11 -12 5 -18 -12 -11 -155 -47 -245 -61 -62 -10 -65 -10
-91 15 -19 18 -35 25 -55 22 -35 -4 -41 -21 -15 -47 32 -32 26 -59 -27 -115
-27 -28 -54 -60 -60 -71 -12 -19 -14 -18 -47 19 -61 68 -85 161 -135 503 -24
168 -26 243 -7 243 9 0 24 -45 45 -126z m1952 87 c35 -67 -20 -181 -87 -181
-19 0 -23 6 -23 28 0 28 17 135 25 160 7 20 73 15 85 -7z m-2120 -10 c5 -11
10 -52 10 -91 0 -63 -2 -71 -17 -68 -37 6 -82 146 -56 171 13 14 53 6 63 -12z
m67 -123 c-3 -7 -5 -2 -5 12 0 14 2 19 5 13 2 -7 2 -19 0 -25z m13 -80 c0 -21
6 -86 14 -145 8 -59 20 -153 27 -208 25 -204 88 -402 156 -495 l26 -35 -31 29
c-41 38 -96 151 -127 260 -41 143 -104 686 -76 646 6 -8 11 -32 11 -52z m1513
-420 c-8 -74 -188 -410 -257 -478 -41 -41 -109 -80 -139 -80 -19 0 -53 42
-101 128 -23 41 -31 64 -23 66 7 2 33 8 60 15 74 17 130 48 181 99 43 42 116
141 116 156 0 15 -24 2 -64 -34 -58 -53 -144 -79 -291 -87 -118 -6 -265 14
-315 43 -25 16 -73 75 -65 82 2 2 41 -1 86 -7 128 -17 406 -13 529 8 108 18
149 35 235 95 28 20 50 35 51 36 1 0 -1 -19 -3 -42z m-1046 -28 c37 -22 70
-40 73 -40 4 0 22 -21 40 -47 52 -74 169 -189 217 -213 23 -12 58 -24 78 -27
19 -3 35 -7 35 -9 0 -2 -18 -42 -39 -88 -23 -51 -49 -91 -65 -101 -24 -16 -28
-16 -69 4 -58 28 -153 128 -205 216 -43 73 -142 302 -142 329 0 22 3 21 77
-24z m733 -201 c-14 -11 -50 -32 -80 -47 -105 -50 -296 -39 -366 21 l-26 23
93 -12 c102 -13 244 -5 334 20 68 19 74 19 45 -5z m212 -586 c-5 -128 -3 -125
-162 -213 -52 -29 -124 -75 -160 -104 -61 -47 -70 -51 -133 -56 -62 -5 -70 -3
-90 19 -25 27 -124 93 -212 141 -33 18 -66 38 -73 44 -8 8 -15 50 -18 113 l-5
101 58 -23 c122 -49 212 -68 328 -69 64 0 131 5 160 13 72 20 135 40 175 58
19 8 44 19 55 23 11 4 31 12 45 18 14 6 27 11 30 11 3 1 4 -34 2 -76z m126
-73 c25 -38 29 -110 11 -219 -29 -183 -153 -367 -234 -347 -15 4 -46 35 -82
82 -58 77 -83 96 -141 109 l-33 7 17 26 c10 15 25 33 33 40 30 24 186 128 234
156 67 39 110 83 133 138 10 27 24 46 29 45 6 -2 20 -18 33 -37z m-1079 -28
c33 -65 79 -105 219 -187 94 -56 142 -99 142 -126 0 -12 -19 -30 -56 -50 -43
-25 -60 -41 -74 -73 -17 -40 -77 -103 -120 -126 -28 -15 -56 3 -110 71 -70 89
-99 235 -81 404 9 88 26 145 42 145 5 0 22 -26 38 -58z m1415 -171 c6 -8 168
-91 180 -91 3 0 29 -11 58 -24 30 -14 78 -34 107 -46 52 -20 75 -30 199 -86
29 -13 56 -24 60 -24 4 -1 24 -13 45 -28 31 -22 50 -54 111 -182 78 -164 202
-471 285 -707 154 -434 264 -946 260 -1203 -1 -47 -4 -71 -6 -55 -32 248 -88
488 -199 855 -137 450 -301 889 -464 1241 -14 30 -80 66 -235 127 -126 50
-346 146 -372 163 -24 15 -59 69 -44 69 5 0 12 -4 15 -9z m-1839 -20 c-11 -11
-78 -42 -148 -70 -71 -28 -147 -60 -170 -70 -23 -11 -76 -33 -117 -49 -173
-70 -204 -88 -229 -140 -216 -437 -398 -1037 -456 -1502 -9 -69 -31 -224 -51
-345 -19 -121 -38 -274 -41 -340 -8 -163 -22 -181 -23 -28 0 128 6 179 71 648
65 467 120 700 257 1096 68 195 209 504 247 540 11 12 70 41 131 65 60 24 119
48 132 54 12 5 32 14 45 19 12 4 33 13 47 19 14 5 61 24 105 40 44 17 109 42
145 56 79 31 79 31 55 7z m3969 -17 c42 -42 35 -104 -15 -129 -71 -37 -149 -2
-149 68 0 50 40 87 95 87 32 0 48 -6 69 -26z m-2065 -134 c0 -8 -7 -1 -14 15
-8 17 -14 37 -14 45 0 8 7 2 14 -15 8 -16 14 -37 14 -45z m-1589 -23 c0 -40
57 -144 107 -196 42 -43 55 -51 86 -51 48 0 78 12 121 50 33 29 36 30 43 13
29 -82 49 -122 82 -172 l40 -58 -15 -109 c-33 -246 -43 -337 -54 -494 -6 -91
-14 -189 -16 -217 l-5 -53 -143 0 c-103 0 -146 4 -153 13 -6 6 -13 32 -17 57
-31 200 -48 324 -60 440 -35 316 -51 820 -26 805 6 -3 10 -16 10 -28z m699
-13 c113 -52 106 -45 103 -100 -2 -30 -19 -85 -44 -140 -46 -105 -44 -104
-188 -104 -74 0 -75 1 -97 33 -24 35 -83 198 -83 228 0 25 33 54 80 69 22 7
45 19 51 27 20 23 115 16 178 -13z m501 -587 c-11 -196 -20 -401 -20 -455 0
-53 -3 -127 -7 -164 l-6 -68 -178 0 c-164 0 -179 1 -179 18 0 9 -5 60 -10 112
-15 160 -29 335 -45 559 -13 189 -13 216 0 231 13 14 81 154 98 202 5 14 11
12 40 -17 44 -44 97 -55 145 -29 39 21 112 106 151 176 l26 47 3 -127 c1 -70
-6 -288 -18 -485z m441 517 c12 -25 19 -47 17 -50 -2 -2 -14 19 -25 46 -12 28
-19 50 -17 50 3 0 14 -21 25 -46z m-364 -301 c-2 -37 -3 -9 -3 62 0 72 1 102
3 68 2 -34 2 -93 0 -130z m-573 -190 c4 -87 13 -239 21 -338 7 -99 16 -224 20
-277 l7 -98 -151 3 c-107 1 -151 5 -151 14 0 62 62 731 75 810 6 32 7 32 68
36 34 2 71 4 83 5 20 2 21 -4 28 -155z m563 0 c-2 -21 -4 -4 -4 37 0 41 2 58
4 38 2 -21 2 -55 0 -75z m3402 12 c33 -16 41 -33 41 -81 0 -48 -29 -74 -82
-74 -56 0 -78 21 -78 75 0 31 7 49 25 69 27 29 53 33 94 11z m-3413 -297 c-4
-128 -9 -255 -12 -283 -3 -27 -1 -62 5 -77 7 -18 7 -28 1 -28 -6 0 -10 -4 -10
-10 0 -5 7 -10 16 -10 8 0 12 -4 9 -10 -3 -5 -13 -10 -22 -10 -14 0 -15 20 -9
183 12 334 19 477 24 477 2 0 2 -105 -2 -232z m661 -15 c-3 -10 -10 -39 -17
-65 -7 -26 -18 -52 -24 -57 -12 -10 -131 -26 -263 -36 -64 -4 -83 -2 -83 7 1
18 28 129 33 134 2 2 78 9 168 15 90 5 165 12 168 14 11 11 22 3 18 -12z
m-280 -473 c52 -18 58 -44 44 -177 -6 -65 -20 -221 -31 -348 -35 -398 -96
-993 -105 -1025 -4 -13 -148 -15 -1229 -12 l-1223 2 -7 48 c-49 360 -156 1326
-156 1415 0 44 5 59 25 81 l24 26 1314 0 c890 0 1324 -3 1344 -10z m441 -410
c55 -169 129 -476 118 -487 -4 -4 -162 -43 -176 -43 -5 0 -7 17 -5 38 2 20 6
164 10 320 4 156 11 280 15 275 4 -4 21 -51 38 -103z m1810 -468 c-3 -40 -8
-75 -11 -78 -3 -3 -147 -8 -320 -11 l-314 -5 -7 76 c-4 42 -5 80 -2 84 2 4
151 7 331 7 l327 0 -4 -73z m-513 -317 c8 -88 22 -211 30 -274 8 -63 15 -116
15 -118 0 -2 -15 -3 -34 -3 l-33 0 -7 83 c-7 72 -34 296 -52 429 -6 45 -6 47
22 50 16 2 32 1 36 -2 4 -3 14 -77 23 -165z m459 73 c-7 -51 -22 -167 -34
-258 -11 -91 -23 -175 -25 -187 -5 -23 -7 -23 -177 -23 -94 0 -169 2 -167 4 2
2 73 6 158 9 84 3 155 8 157 10 3 2 -2 10 -11 17 -10 8 -15 9 -15 2 0 -6 -7
-9 -15 -6 -25 10 -17 24 14 24 25 0 30 5 33 28 2 15 0 39 -4 55 -5 21 -3 27 9
27 10 0 14 -6 10 -20 -3 -11 0 -23 5 -27 11 -6 5 88 -8 121 -4 11 2 19 17 25
13 5 18 10 12 10 -7 1 -13 6 -13 12 0 5 5 7 11 3 8 -5 10 1 7 19 -3 15 -2 28
2 29 4 2 10 27 14 56 4 35 3 52 -3 48 -12 -8 -29 23 -26 45 2 11 -5 15 -24 14
-15 -1 -33 -5 -39 -9 -7 -4 -12 -2 -12 3 0 16 -26 13 -41 -5 -11 -13 -14 -13
-21 -1 -5 10 -27 15 -70 16 -91 1 -147 6 -155 14 -3 4 10 7 30 7 62 0 41 19
-25 23 -35 2 45 4 178 5 l240 2 -12 -92z m-424 58 c0 -3 -4 -8 -10 -11 -5 -3
-10 -1 -10 4 0 6 5 11 10 11 6 0 10 -2 10 -4z m130 -30 c0 -2 -7 -7 -16 -10
-8 -3 -12 -2 -9 4 6 10 25 14 25 6z m-1862 -223 c43 -64 59 -143 42 -213 l-12
-50 -55 0 c-47 0 -54 2 -49 18 2 9 12 74 22 145 9 70 21 127 25 127 4 0 16
-12 27 -27z m2081 -76 c0 -21 -1 -21 -9 -2 -12 28 -12 37 0 30 6 -3 10 -16 9
-28z m-1119 -178 c0 -17 -7 -19 -92 -18 -101 0 -98 7 12 32 72 16 80 15 80
-14z"/>
<path d="M4516 7028 c-70 -13 -167 -60 -215 -104 -38 -34 -81 -99 -81 -122 0
-5 75 -8 168 -8 92 1 207 -1 255 -4 88 -5 89 -5 114 24 21 25 24 36 19 70 -9
58 -47 129 -76 143 -29 15 -113 15 -184 1z"/>
<path d="M5210 7027 c-52 -26 -83 -203 -42 -241 25 -22 102 -22 177 0 44 13
99 18 207 19 82 0 148 4 149 8 1 13 -36 71 -71 110 -42 48 -113 84 -199 103
-82 17 -188 18 -221 1z"/>
<path d="M4420 6651 c-74 -10 -94 -23 -125 -76 -27 -45 -30 -85 -8 -93 13 -4
17 3 27 51 8 36 40 67 70 67 22 0 23 -1 12 -41 -10 -39 -9 -42 22 -70 26 -24
41 -29 82 -29 84 0 150 39 150 89 0 31 -61 101 -87 101 -10 0 -34 2 -53 4 -19
2 -60 1 -90 -3z m203 -83 c6 -19 -11 -48 -28 -48 -15 0 -21 40 -8 53 11 11 31
8 36 -5z"/>
<path d="M5389 6657 c-81 -23 -139 -80 -139 -138 0 -18 5 -15 29 19 31 41 51
59 51 45 0 -5 -5 -14 -11 -20 -14 -14 34 -81 69 -94 50 -19 92 -11 128 25 37
37 41 57 19 96 -20 35 -19 40 9 40 52 0 77 -83 30 -100 -22 -9 -24 -13 -14
-25 19 -23 48 -18 66 10 22 33 13 91 -20 123 -21 21 -36 25 -98 28 -41 2 -93
-2 -119 -9z"/>
<path d="M3890 6282 c0 -5 11 -12 25 -14 14 -3 25 -1 25 3 0 5 -4 9 -9 9 -5 0
-16 3 -25 6 -9 3 -16 2 -16 -4z"/>
<path d="M4663 2800 c-94 -20 -179 -86 -216 -169 -16 -34 -21 -66 -21 -126 0
-95 21 -150 80 -209 160 -159 445 -99 524 111 27 72 24 167 -8 228 -28 55 -97
120 -154 145 -54 24 -145 33 -205 20z m203 -68 c141 -73 177 -259 74 -384 -44
-53 -139 -98 -207 -98 -144 0 -258 120 -258 270 1 102 49 175 145 220 60 28
185 24 246 -8z"/>
<path d="M7890 2190 c0 -5 5 -10 11 -10 5 0 7 5 4 10 -3 6 -8 10 -11 10 -2 0
-4 -4 -4 -10z"/>
<path d="M7966 2192 c-5 -8 224 -5 232 3 3 3 -47 5 -111 5 -64 0 -118 -3 -121
-8z"/>
<path d="M8170 2114 c0 -8 5 -12 10 -9 6 3 10 10 10 16 0 5 -4 9 -10 9 -5 0
-10 -7 -10 -16z"/>
<path d="M8151 1864 c0 -11 3 -14 6 -6 3 7 2 16 -1 19 -3 4 -6 -2 -5 -13z"/>
<path d="M8131 1734 c0 -11 3 -14 6 -6 3 7 2 16 -1 19 -3 4 -6 -2 -5 -13z"/>
<path d="M7770 8345 c-358 -77 -610 -330 -696 -700 -26 -112 -27 -372 -1 -465
24 -86 104 -245 161 -319 62 -81 172 -179 245 -219 75 -41 79 -36 9 9 -189
121 -342 332 -384 530 -44 202 -3 485 97 682 73 145 232 303 374 374 134 67
184 78 365 78 191 0 240 -10 388 -80 158 -75 267 -166 360 -302 27 -40 53 -69
57 -65 5 4 5 2 1 -5 -4 -7 5 -35 19 -63 71 -140 103 -382 71 -539 -83 -409
-378 -691 -777 -742 -94 -12 -263 -1 -329 23 -17 5 -33 8 -36 5 -3 -3 21 -13
53 -22 32 -9 71 -21 87 -26 16 -5 79 -9 140 -9 405 0 735 244 867 640 27 83
32 113 36 236 4 109 2 159 -11 224 -38 184 -129 354 -261 485 -125 126 -249
200 -417 251 -105 32 -315 42 -418 19z m1087 -787 c-3 -8 -6 -5 -6 6 -1 11 2
17 5 13 3 -3 4 -12 1 -19z"/>
<path d="M2270 7811 c-120 -39 -193 -143 -194 -278 l-1 -73 -107 0 c-80 0
-108 -3 -108 -12 0 -7 -2 -166 -3 -352 l-2 -340 -57 3 c-65 3 -72 -6 -33 -45
l25 -25 532 3 c293 2 541 7 550 11 34 17 32 67 -2 67 -26 0 -27 12 -22 216 3
99 2 210 -2 246 -7 63 -9 67 -38 77 -17 6 -91 11 -163 11 l-133 0 33 33 c35
35 65 115 65 173 0 47 -36 153 -68 199 -40 57 -99 87 -181 91 -36 2 -77 0 -91
-5z m137 -57 c13 -4 21 -10 18 -13 -2 -4 11 -13 29 -21 19 -7 44 -30 60 -53
22 -34 26 -52 26 -110 0 -43 -6 -82 -16 -103 -18 -39 -74 -91 -112 -105 -31
-12 -92 -2 -71 12 11 7 9 9 -6 9 -30 1 -81 31 -106 64 -17 22 -24 46 -27 92
-7 105 45 164 145 164 62 0 114 -40 139 -105 16 -42 16 -48 1 -86 -13 -34 -14
-39 -2 -29 27 22 40 85 27 129 -52 172 -301 174 -352 3 -8 -25 -8 -25 -9 -4
-2 52 60 124 125 147 42 15 95 18 131 9z m-264 -243 c-3 -34 -1 -66 5 -77 9
-14 12 -15 12 -4 0 13 1 13 10 0 13 -20 12 -33 -2 -24 -7 5 -8 3 -4 -5 5 -7
11 -10 14 -7 3 4 18 -5 32 -19 15 -14 49 -34 76 -45 l49 -19 -47 -1 c-42 0
-53 5 -89 38 -61 54 -83 124 -63 200 10 37 12 25 7 -37z m-38 -121 c10 -30 53
-79 89 -98 26 -15 72 -18 311 -22 l280 -5 3 -257 2 -258 -446 0 -447 0 6 218
c4 119 7 268 7 330 l0 112 94 0 c86 0 95 -2 101 -20z"/>
<path d="M7205 7802 c-3 -8 -3 -17 0 -20 3 -3 5 0 5 6 0 7 7 12 15 12 8 0 15
4 15 8 0 15 -29 9 -35 -6z"/>
<path d="M7520 7804 c-86 -35 -128 -67 -131 -99 -1 -11 -1 -147 -1 -302 l2
-282 24 -28 24 -28 271 0 c149 -1 272 -3 274 -5 2 -3 14 -31 27 -63 12 -32 36
-72 51 -89 29 -30 30 -30 102 -24 113 12 143 56 97 146 l-20 40 69 0 c65 0 72
2 105 34 l36 33 0 288 c0 274 -1 289 -21 321 -11 19 -31 40 -42 46 -23 13
-837 24 -867 12z m201 -100 c16 -36 143 -169 198 -207 23 -15 27 -15 50 0 47
29 205 151 246 188 56 51 13 28 -89 -49 -47 -36 -104 -76 -125 -88 -51 -29
-62 -23 -186 102 l-96 98 318 4 c175 3 325 1 334 -3 36 -18 40 -58 37 -333 -3
-251 -4 -268 -22 -282 -27 -19 -930 -21 -943 -1 -13 20 -16 563 -3 587 6 12
31 34 55 49 l43 28 83 -27 c78 -26 84 -30 100 -66z m505 -707 c24 -46 13 -57
-56 -57 -35 0 -59 4 -55 9 3 5 -2 16 -10 24 -13 14 -13 17 2 33 9 9 31 22 48
29 35 15 48 8 71 -38z"/>
<path d="M7230 7763 c0 -33 -15 -61 -27 -50 -4 5 -3 11 3 15 16 10 13 42 -3
42 -8 0 -11 -4 -8 -10 3 -5 2 -10 -4 -10 -6 0 -8 -7 -5 -15 4 -8 2 -15 -4 -15
-9 0 -16 -21 -43 -135 -18 -76 -23 -282 -10 -361 7 -38 21 -94 32 -124 26 -70
90 -181 101 -174 5 3 7 1 6 -5 -2 -6 13 -34 32 -61 34 -48 50 -61 50 -40 0 6
-4 10 -10 10 -5 0 -10 7 -10 15 0 8 7 15 16 15 8 0 13 4 10 9 -3 5 -16 7 -28
3 -14 -3 -19 -2 -14 6 4 7 15 12 24 12 13 0 14 2 3 9 -8 5 -11 16 -6 30 3 11
3 21 -2 21 -10 0 -10 41 1 58 4 8 3 11 -5 10 -6 -2 -13 10 -16 26 -2 16 -10
41 -18 56 -8 15 -11 30 -8 34 4 3 2 6 -4 6 -10 0 -13 13 -16 83 -1 17 -6 35
-12 40 -6 4 -5 11 5 17 10 6 11 10 3 10 -7 0 -12 6 -10 13 1 6 -3 11 -9 10 -8
-1 -9 11 -3 40 4 23 8 42 9 42 1 0 -4 13 -10 29 -8 21 -7 32 1 42 6 8 8 21 4
31 -12 27 -14 43 -6 43 4 0 7 9 8 20 1 11 -2 20 -8 20 -5 0 -9 7 -9 15 0 8 5
15 10 15 6 0 10 7 10 15 0 8 -5 15 -12 15 -6 0 -4 7 5 18 10 10 17 23 17 28 0
5 -5 2 -11 -6 -7 -11 -9 1 -6 43 3 31 1 60 -4 63 -5 3 -9 -7 -9 -23z"/>
<path d="M2634 7464 c-3 -10 -10 -29 -15 -41 -5 -13 -5 -23 0 -23 9 0 33 72
26 78 -3 3 -7 -4 -11 -14z"/>
<path d="M7350 6800 c0 -5 5 -10 10 -10 6 0 10 5 10 10 0 6 -4 10 -10 10 -5 0
-10 -4 -10 -10z"/>
<path d="M7630 6566 c14 -9 32 -15 40 -15 13 0 13 1 0 8 -8 5 -26 12 -40 15
l-25 7 25 -15z"/>
<path d="M2280 6411 c-97 -15 -182 -42 -227 -72 -45 -31 -68 -63 -58 -79 4 -6
-3 -26 -15 -44 -13 -22 -17 -37 -10 -41 5 -3 17 -20 26 -37 13 -25 13 -35 4
-59 -19 -46 -35 -35 -31 21 0 8 -3 22 -9 30 -8 13 -13 13 -32 2 -15 -8 -12 -4
7 12 25 22 27 26 11 26 -23 0 -82 -43 -97 -72 -6 -12 -15 -90 -18 -174 -5
-102 -12 -158 -20 -168 -8 -9 -10 -16 -7 -16 4 0 2 -8 -3 -19 -11 -20 14 -48
95 -103 24 -16 47 -36 52 -44 16 -28 165 -174 178 -174 9 0 14 11 14 30 0 17
3 30 8 30 4 0 8 25 8 55 1 49 0 54 -14 43 -8 -7 -22 -29 -30 -48 l-14 -35 -27
35 c-14 19 -38 47 -52 62 -32 33 -43 58 -25 58 7 0 20 8 29 18 14 15 15 25 6
58 -27 99 -98 101 -143 2 -27 -58 -42 -44 -27 25 5 23 13 99 17 170 6 114 8
125 21 107 22 -31 65 -26 107 14 42 39 43 50 14 112 -21 45 -21 47 -3 77 26
45 66 97 75 97 7 0 60 -167 60 -190 0 -7 -8 -23 -17 -34 -18 -21 -18 -21 5 -2
29 25 30 104 2 183 -11 32 -16 61 -12 65 13 13 171 38 237 38 33 0 90 -3 128
-7 l67 -6 0 -59 c0 -71 22 -131 44 -122 9 3 16 1 16 -5 0 -6 10 -10 23 -10 16
1 18 2 5 6 -19 5 -22 24 -18 106 1 30 -4 57 -14 72 -9 13 -16 31 -16 39 0 7
-10 16 -22 19 -44 11 -244 15 -298 8z m325 -211 c3 -5 1 -10 -4 -10 -6 0 -11
5 -11 10 0 6 2 10 4 10 3 0 8 -4 11 -10z"/>
<path d="M2670 6273 c0 -44 13 -68 35 -68 8 0 14 -5 14 -10 -1 -12 68 -43 99
-44 35 -1 26 -19 -17 -32 -29 -9 -43 -8 -60 1 -13 6 -24 10 -26 8 -2 -2 10
-34 27 -72 37 -85 41 -143 11 -173 -16 -16 -24 -18 -33 -9 -29 28 -84 -107
-81 -200 1 -53 -18 -86 -58 -99 -24 -7 -31 -33 -31 -121 l0 -71 -46 -7 c-124
-17 -209 -1 -289 53 -26 18 -49 30 -51 28 -8 -7 21 -83 36 -92 32 -21 119 -34
220 -35 87 0 113 4 145 20 22 11 48 20 60 20 11 0 28 6 37 14 16 11 16 15 2
34 -10 14 -26 22 -45 22 -25 0 -29 4 -29 29 0 43 13 71 56 116 20 22 57 83 81
135 25 52 53 112 64 132 25 49 33 111 20 173 -5 27 -8 51 -7 53 4 3 150 41
152 39 0 -1 10 -54 21 -117 14 -82 22 -110 28 -96 10 24 -9 167 -27 198 -6 13
-13 32 -15 43 -6 38 -24 83 -37 94 -10 8 -16 2 -25 -29 -6 -22 -16 -40 -20
-40 -5 0 -27 18 -49 40 -42 43 -97 55 -108 25 -4 -8 -10 -15 -16 -15 -5 0 0
12 11 26 27 34 26 50 -1 58 -42 11 -48 7 -48 -31z m57 -465 c-3 -7 -5 -2 -5
12 0 14 2 19 5 13 2 -7 2 -19 0 -25z m-31 -89 c-9 -19 -15 -29 -16 -22 0 15
22 64 27 60 2 -2 -3 -19 -11 -38z"/>
<path d="M2670 6170 c0 -5 5 -10 11 -10 5 0 7 5 4 10 -3 6 -8 10 -11 10 -2 0
-4 -4 -4 -10z"/>
<path d="M2688 6143 c7 -3 16 -2 19 1 4 3 -2 6 -13 5 -11 0 -14 -3 -6 -6z"/>
<path d="M2345 5999 c-33 -10 -74 -45 -86 -77 -6 -15 -5 -39 1 -64 9 -33 18
-43 53 -59 62 -28 93 -25 132 14 19 19 37 46 40 60 21 81 -55 148 -140 126z
m88 -57 c21 -19 22 -60 1 -90 -16 -23 -46 -30 -41 -9 1 7 -11 13 -30 15 -32 3
-56 32 -27 32 8 0 13 4 10 9 -3 5 -15 7 -26 4 -23 -6 -25 0 -9 28 20 38 84 44
122 11z"/>
<path d="M2330 5940 c-9 -6 -10 -10 -3 -10 6 0 15 5 18 10 8 12 4 12 -15 0z"/>
<path d="M2893 5880 c-45 -18 -80 -120 -62 -179 6 -22 9 -50 6 -63 -9 -33 -76
-98 -101 -98 -38 0 -50 -14 -36 -41 7 -13 14 -25 15 -27 7 -8 52 23 86 58 60
60 73 94 71 185 -3 106 9 125 66 106 44 -15 62 -9 62 18 0 29 -69 56 -107 41z"/>
<path d="M1515 5019 c-9 -42 -3 -43 16 -3 13 26 13 34 4 34 -8 0 -16 -14 -20
-31z"/>
<path d="M1650 5004 c0 -14 4 -23 9 -20 5 3 7 15 4 26 -7 28 -13 25 -13 -6z"/>
<path d="M7150 4808 c0 -19 5 -72 11 -117 8 -59 8 -90 1 -106 -9 -18 -8 -25 4
-29 20 -8 62 23 153 109 l74 70 41 -48 c22 -26 48 -47 57 -47 9 0 42 26 73 58
46 47 58 54 66 42 13 -19 13 -8 0 24 -5 14 -14 26 -19 26 -6 0 -38 -26 -72
-57 -59 -55 -62 -56 -76 -38 -8 11 -21 35 -29 53 -8 18 -22 32 -32 32 -9 0
-59 -41 -110 -91 -51 -50 -95 -89 -98 -86 -3 3 -12 56 -19 117 -15 114 -25
152 -25 88z"/>
<path d="M7688 4658 c-2 -16 -12 -25 -33 -29 l-30 -7 28 -1 27 -1 0 -145 c0
-80 4 -145 8 -145 15 0 35 133 36 241 1 89 -1 104 -16 107 -11 2 -18 -5 -20
-20z"/>
<path d="M7287 4564 c-4 -4 -4 -19 -2 -33 3 -14 2 -19 -2 -11 -3 8 -12 21 -20
28 -11 11 -13 10 -13 -5 0 -11 -13 -32 -30 -48 -28 -27 -30 -34 -28 -94 l1
-66 6 62 c5 48 12 68 31 87 39 39 53 22 61 -76 6 -82 6 -81 7 40 1 67 1 122
-1 122 -2 0 -7 -3 -10 -6z"/>
<path d="M1409 4543 c-10 -11 -24 -13 -51 -9 -32 5 -38 4 -38 -12 0 -10 6 -26
13 -36 11 -14 17 -15 42 -6 17 6 36 18 42 27 7 9 14 15 16 12 1 -2 26 -32 55
-66 l52 -61 -77 -74 c-41 -40 -81 -78 -87 -84 -7 -8 -19 -9 -34 -3 -36 14 -62
-5 -62 -46 0 -37 21 -65 51 -65 19 0 58 32 60 50 1 6 2 14 3 18 0 5 38 49 83
98 l82 89 70 -69 c60 -60 72 -68 86 -56 26 21 115 137 115 149 0 23 -20 9 -80
-59 l-63 -71 -20 33 c-10 18 -70 83 -133 145 -97 96 -115 109 -125 96z m-48
-339 c17 -21 0 -49 -31 -49 -27 0 -46 25 -37 49 8 21 51 21 68 0z"/>
<path d="M7133 4525 c0 -22 2 -30 4 -17 2 12 2 30 0 40 -3 9 -5 -1 -4 -23z"/>
<path d="M7143 4435 c0 -22 2 -30 4 -17 2 12 2 30 0 40 -3 9 -5 -1 -4 -23z"/>
<path d="M7152 4365 c0 -16 2 -22 5 -12 2 9 2 23 0 30 -3 6 -5 -1 -5 -18z"/>
<path d="M1172 4270 c0 -19 2 -27 5 -17 2 9 2 25 0 35 -3 9 -5 1 -5 -18z"/>
<path d="M7172 4236 c2 -12 15 -23 33 -28 40 -12 436 1 453 14 35 30 10 33
-238 33 -242 0 -251 -1 -248 -19z"/>
<path d="M1173 4145 c0 -44 2 -61 4 -37 2 23 2 59 0 80 -2 20 -4 1 -4 -43z"/>
<path d="M1171 4044 c0 -11 3 -14 6 -6 3 7 2 16 -1 19 -3 4 -6 -2 -5 -13z"/>
<path d="M1223 3732 c-1 -19 6 -27 28 -35 16 -6 28 -16 27 -22 -1 -5 2 -24 6
-42 6 -24 14 -33 34 -36 20 -3 17 -5 -13 -6 -32 -2 -36 -4 -20 -11 29 -13 548
-13 540 0 -3 6 -31 10 -62 10 -81 0 -61 9 29 12 42 2 81 7 85 12 4 5 -9 6 -29
3 -21 -3 -38 -2 -38 4 0 5 6 9 14 9 8 0 16 7 20 15 3 8 17 15 31 15 15 0 24 4
20 10 -3 6 -1 10 4 10 6 0 11 -4 11 -10 0 -5 8 -10 18 -9 10 0 12 3 5 6 -7 2
-13 9 -13 14 0 6 5 7 11 3 11 -7 29 12 29 31 0 7 -119 9 -342 7 -322 -3 -343
-2 -367 16 l-26 19 -2 -25z m574 -108 c-3 -3 -12 -4 -19 -1 -8 3 -5 6 6 6 11
1 17 -2 13 -5z m-137 -34 c-8 -5 -19 -10 -25 -10 -5 0 -3 5 5 10 8 5 20 10 25
10 6 0 3 -5 -5 -10z"/>
<path d="M1850 3640 c0 -5 4 -10 9 -10 6 0 13 5 16 10 3 6 -1 10 -9 10 -9 0
-16 -4 -16 -10z"/>
<path d="M1280 3520 c0 -5 19 -10 42 -10 40 0 41 -1 22 -16 -10 -8 -13 -13 -6
-9 16 8 54 -4 47 -16 -4 -5 21 -9 57 -9 44 0 59 3 48 10 -11 7 1 10 40 9 40 0
49 -3 35 -9 -11 -5 -14 -9 -7 -9 7 -1 21 5 32 12 17 10 22 9 30 -3 9 -13 12
-13 24 3 7 9 26 17 43 17 16 0 33 4 39 9 5 5 29 14 54 19 34 7 -23 10 -227 11
-176 1 -273 -3 -273 -9z m166 -48 c-10 -2 -22 0 -28 6 -6 6 0 7 19 4 21 -5 23
-7 9 -10z"/>
<path d="M8030 3502 c0 -4 -73 -71 -162 -149 -90 -77 -203 -179 -253 -225
l-90 -85 18 -37 c23 -48 40 -53 85 -24 38 26 191 160 320 280 39 37 78 68 85
68 6 1 33 20 59 44 l47 43 -48 47 c-45 45 -61 54 -61 38z m-20 -149 c0 -18
-19 -36 -170 -163 -69 -57 -153 -128 -188 -157 -34 -29 -64 -53 -66 -53 -2 0
-12 12 -21 27 -15 23 -15 25 -2 20 9 -3 20 0 24 7 7 11 138 123 298 256 23 19
55 49 71 66 29 31 54 30 54 -3z"/>
<path d="M1336 3217 c3 -10 9 -15 12 -12 3 3 0 11 -7 18 -10 9 -11 8 -5 -6z"/>
<path d="M1370 3161 c0 -6 5 -13 10 -16 6 -3 10 1 10 9 0 9 -4 16 -10 16 -5 0
-10 -4 -10 -9z"/>
<path d="M1395 3120 c3 -5 8 -10 11 -10 2 0 4 5 4 10 0 6 -5 10 -11 10 -5 0
-7 -4 -4 -10z"/>
<path d="M1415 3101 c-3 -5 0 -13 6 -17 7 -4 9 -3 5 4 -3 5 0 13 6 15 9 4 10
6 1 6 -6 1 -14 -3 -18 -8z"/>
<path d="M1693 3083 c20 -2 54 -2 75 0 20 2 3 4 -38 4 -41 0 -58 -2 -37 -4z"/>
<path d="M1678 3063 c6 -2 18 -2 25 0 6 3 1 5 -13 5 -14 0 -19 -2 -12 -5z"/>
<path d="M1758 3063 c6 -2 18 -2 25 0 6 3 1 5 -13 5 -14 0 -19 -2 -12 -5z"/>
<path d="M1808 3063 c7 -3 16 -2 19 1 4 3 -2 6 -13 5 -11 0 -14 -3 -6 -6z"/>
<path d="M1455 3041 c-3 -5 -2 -12 3 -15 5 -3 9 1 9 9 0 17 -3 19 -12 6z"/>
<path d="M1480 2993 c5 -12 15 -25 22 -29 6 -4 8 -3 4 4 -3 5 -1 13 4 15 6 3
5 4 -2 3 -7 -2 -19 4 -26 13 -11 14 -12 13 -2 -6z"/>
<path d="M1515 2950 c-3 -5 -1 -10 4 -10 6 0 11 5 11 10 0 6 -2 10 -4 10 -3 0
-8 -4 -11 -10z"/>
<path d="M1541 2934 c0 -11 3 -14 6 -6 3 7 2 16 -1 19 -3 4 -6 -2 -5 -13z"/>
<path d="M1608 2932 c-10 -2 -18 -8 -18 -13 0 -6 4 -7 10 -4 5 3 18 1 27 -4
15 -9 12 -11 -17 -12 -31 -2 -32 -3 -7 -6 31 -5 36 -26 10 -43 -16 -10 -15
-11 5 -6 18 3 21 2 13 -8 -6 -7 -8 -16 -4 -19 3 -4 1 -7 -5 -7 -7 0 -3 -14 10
-35 13 -19 29 -35 36 -35 7 0 11 -4 8 -8 -3 -5 5 -22 19 -38 13 -16 44 -56 70
-89 27 -35 45 -52 43 -40 -4 24 -20 45 -30 38 -5 -2 -8 5 -8 17 0 12 -4 19 -9
16 -5 -3 -12 1 -15 10 -4 12 -2 15 9 10 12 -4 13 -2 2 14 -6 11 -21 20 -31 20
-18 0 -19 1 -3 13 28 20 32 67 7 84 -11 8 -20 21 -20 30 0 15 1 15 13 -1 12
-16 13 -16 13 3 0 12 -3 21 -7 21 -4 0 -10 12 -14 27 -5 21 -8 24 -16 12 -5
-7 -9 -18 -9 -24 0 -5 5 -3 10 5 8 13 10 12 10 -3 0 -29 -24 -14 -31 19 -3 16
-10 28 -17 27 -7 -2 -12 3 -12 11 0 16 -18 24 -42 18z m48 -146 c2 -13 1 -13
-3 -1 -2 8 -9 13 -14 10 -5 -4 -9 -1 -9 5 0 18 25 5 26 -14z m76 -38 c-9 -9
-12 -7 -12 12 0 19 3 21 12 12 9 -9 9 -15 0 -24z m-2 -28 c0 -5 -4 -10 -10
-10 -5 0 -10 5 -10 10 0 6 5 10 10 10 6 0 10 -4 10 -10z"/>
<path d="M1605 2870 c-3 -5 -1 -10 4 -10 6 0 11 5 11 10 0 6 -2 10 -4 10 -3 0
-8 -4 -11 -10z"/>
<path d="M1900 2650 c6 -11 13 -20 16 -20 2 0 0 9 -6 20 -6 11 -13 20 -16 20
-2 0 0 -9 6 -20z"/>
<path d="M1820 2557 c0 -10 8 -17 18 -17 9 0 13 4 7 8 -5 4 -13 11 -17 16 -5
5 -8 2 -8 -7z"/>
<path d="M1839 2513 c6 -10 22 -31 36 -48 15 -16 23 -23 18 -15 -4 8 -8 24 -8
35 0 13 -6 20 -17 19 -21 -2 -24 12 -5 19 6 3 2 6 -11 6 -19 1 -21 -2 -13 -16z"/>
<path d="M1956 2508 c3 -5 10 -6 15 -3 13 9 11 12 -6 12 -8 0 -12 -4 -9 -9z"/>
<path d="M1900 2471 c0 -6 4 -13 10 -16 6 -3 7 1 4 9 -7 18 -14 21 -14 7z"/>
<path d="M2293 1955 c0 -8 4 -12 8 -9 4 2 14 -5 22 -17 18 -25 57 -54 57 -42
0 13 -66 83 -77 83 -5 0 -10 -7 -10 -15z"/>
<path d="M2380 1785 c0 -10 64 -77 84 -86 14 -8 11 -1 -11 20 -17 17 -34 40
-38 51 -5 17 -35 30 -35 15z"/>
</g>
</svg>
