<svg width="776" height="826" viewBox="0 0 776 826" fill="none" xmlns="http://www.w3.org/2000/svg">
<mask id="path-1-outside-1_1325_8239" maskUnits="userSpaceOnUse" x="6" y="53" width="212" height="137" fill="black">
<rect fill="white" x="6" y="53" width="212" height="137"/>
<path d="M47.8703 164H59.6703C63.937 164 66.937 163.133 68.6703 161.4C70.4036 159.533 71.2703 156.467 71.2703 152.2V91.2C71.2703 86.9333 70.4036 83.9333 68.6703 82.2C66.937 80.3333 63.937 79.4 59.6703 79.4H47.8703C43.6036 79.4 40.6036 80.3333 38.8703 82.2C37.137 83.9333 36.2703 86.9333 36.2703 91.2V152.2C36.2703 156.467 37.137 159.533 38.8703 161.4C40.6036 163.133 43.6036 164 47.8703 164ZM63.6703 186H43.6703C33.137 186 25.0036 183.2 19.2703 177.6C13.537 172 10.6703 163.933 10.6703 153.4V90C10.6703 79.4667 13.537 71.4 19.2703 65.8C25.0036 60.2 33.137 57.4 43.6703 57.4H63.6703C74.0703 57.4 82.137 60.2667 87.8703 66C93.6036 71.6 96.4703 79.6 96.4703 90V153.4C96.4703 163.8 93.6036 171.867 87.8703 177.6C82.137 183.2 74.0703 186 63.6703 186ZM132.697 181.8V162.8C132.697 155.2 135.964 148.733 142.497 143.4L179.297 112.2C185.297 107.267 188.297 101.933 188.297 96.2V90.2C188.297 86.0667 187.297 83.1333 185.297 81.4C183.43 79.5333 180.297 78.6 175.897 78.6H168.897C164.63 78.6 161.63 79.5333 159.897 81.4C158.164 83.1333 157.297 86.0667 157.297 90.2V96.6C157.297 99.5333 155.897 101 153.097 101H136.097C133.297 101 131.897 99.5333 131.897 96.6V89.8C131.897 79.4 134.764 71.4 140.497 65.8C146.23 60.2 154.364 57.4 164.897 57.4H180.097C190.63 57.4 198.764 60.2 204.497 65.8C210.23 71.4 213.097 79.4 213.097 89.8V97.8C213.097 108.2 209.097 116.8 201.097 123.6L163.497 155.6C161.897 157.067 161.097 158.667 161.097 160.4V163.6H208.897C211.697 163.6 213.097 165 213.097 167.8V181.8C213.097 184.6 211.697 186 208.897 186H136.897C134.097 186 132.697 184.6 132.697 181.8Z"/>
</mask>
<path d="M68.6703 161.4L71.4987 164.228L71.5511 164.176L71.6015 164.122L68.6703 161.4ZM68.6703 82.2L65.7391 84.9218L65.7895 84.9761L65.8419 85.0284L68.6703 82.2ZM38.8703 82.2L41.6987 85.0284L41.7511 84.9761L41.8015 84.9218L38.8703 82.2ZM38.8703 161.4L35.9391 164.122L35.9895 164.176L36.0419 164.228L38.8703 161.4ZM19.2703 177.6L16.4754 180.462L19.2703 177.6ZM19.2703 65.8L16.4754 62.9385L19.2703 65.8ZM87.8703 66L85.0419 68.8284L85.0585 68.8451L85.0754 68.8615L87.8703 66ZM87.8703 177.6L90.6653 180.462L90.6821 180.445L90.6987 180.428L87.8703 177.6ZM47.8703 168H59.6703V160H47.8703V168ZM59.6703 168C64.2692 168 68.6224 167.105 71.4987 164.228L65.8419 158.572C65.2516 159.162 63.6047 160 59.6703 160V168ZM71.6015 164.122C74.3579 161.153 75.2703 156.84 75.2703 152.2H67.2703C67.2703 156.093 66.4494 157.913 65.7391 158.678L71.6015 164.122ZM75.2703 152.2V91.2H67.2703V152.2H75.2703ZM75.2703 91.2C75.2703 86.6011 74.3751 82.2479 71.4987 79.3716L65.8419 85.0284C66.4322 85.6187 67.2703 87.2656 67.2703 91.2H75.2703ZM71.6015 79.4782C68.7328 76.3888 64.3329 75.4 59.6703 75.4V83.4C63.5411 83.4 65.1412 84.2779 65.7391 84.9218L71.6015 79.4782ZM59.6703 75.4H47.8703V83.4H59.6703V75.4ZM47.8703 75.4C43.2078 75.4 38.8079 76.3888 35.9391 79.4782L41.8015 84.9218C42.3994 84.2779 43.9995 83.4 47.8703 83.4V75.4ZM36.0419 79.3716C33.1655 82.2479 32.2703 86.6011 32.2703 91.2H40.2703C40.2703 87.2656 41.1085 85.6187 41.6987 85.0284L36.0419 79.3716ZM32.2703 91.2V152.2H40.2703V91.2H32.2703ZM32.2703 152.2C32.2703 156.84 33.1827 161.153 35.9391 164.122L41.8015 158.678C41.0912 157.913 40.2703 156.093 40.2703 152.2H32.2703ZM36.0419 164.228C38.9183 167.105 43.2714 168 47.8703 168V160C43.9359 160 42.289 159.162 41.6987 158.572L36.0419 164.228ZM63.6703 182H43.6703V190H63.6703V182ZM43.6703 182C33.8419 182 26.8392 179.401 22.0653 174.738L16.4754 180.462C23.1681 186.999 32.4321 190 43.6703 190V182ZM22.0653 174.738C17.3229 170.106 14.6703 163.209 14.6703 153.4H6.67031C6.67031 164.658 9.75109 173.894 16.4754 180.462L22.0653 174.738ZM14.6703 153.4V90H6.67031V153.4H14.6703ZM14.6703 90C14.6703 80.191 17.3229 73.2936 22.0653 68.6615L16.4754 62.9385C9.75109 69.5064 6.67031 78.7423 6.67031 90H14.6703ZM22.0653 68.6615C26.8392 63.9986 33.8419 61.4 43.6703 61.4V53.4C32.4321 53.4 23.1681 56.4014 16.4754 62.9385L22.0653 68.6615ZM43.6703 61.4H63.6703V53.4H43.6703V61.4ZM63.6703 61.4C73.3235 61.4 80.2549 64.0414 85.0419 68.8284L90.6987 63.1716C84.0191 56.4919 74.8172 53.4 63.6703 53.4V61.4ZM85.0754 68.8615C89.8272 73.5028 92.4703 80.3415 92.4703 90H100.47C100.47 78.8585 97.3801 69.6972 90.6653 63.1385L85.0754 68.8615ZM92.4703 90V153.4H100.47V90H92.4703ZM92.4703 153.4C92.4703 163.053 89.8289 169.985 85.0419 174.772L90.6987 180.428C97.3784 173.749 100.47 164.547 100.47 153.4H92.4703ZM85.0754 174.738C80.2923 179.41 73.3489 182 63.6703 182V190C74.7918 190 83.9816 186.99 90.6653 180.462L85.0754 174.738ZM142.497 143.4L145.026 146.499L145.055 146.475L145.084 146.451L142.497 143.4ZM179.297 112.2L176.756 109.11L176.733 109.129L176.71 109.149L179.297 112.2ZM185.297 81.4L182.468 84.2284L182.569 84.3293L182.677 84.4228L185.297 81.4ZM159.897 81.4L162.725 84.2284L162.778 84.1761L162.828 84.1218L159.897 81.4ZM140.497 65.8L137.702 62.9385L140.497 65.8ZM201.097 123.6L198.506 120.552L198.504 120.554L201.097 123.6ZM163.497 155.6L160.904 152.554L160.848 152.602L160.794 152.651L163.497 155.6ZM161.097 163.6H157.097V167.6H161.097V163.6ZM136.697 181.8V162.8H128.697V181.8H136.697ZM136.697 162.8C136.697 156.543 139.308 151.167 145.026 146.499L139.967 140.301C132.619 146.3 128.697 153.857 128.697 162.8H136.697ZM145.084 146.451L181.884 115.251L176.71 109.149L139.91 140.349L145.084 146.451ZM181.837 115.29C188.414 109.883 192.297 103.517 192.297 96.2H184.297C184.297 100.35 182.18 104.651 176.756 109.11L181.837 115.29ZM192.297 96.2V90.2H184.297V96.2H192.297ZM192.297 90.2C192.297 85.5546 191.186 81.2111 187.917 78.3772L182.677 84.4228C183.407 85.0556 184.297 86.5787 184.297 90.2H192.297ZM188.125 78.5716C185.14 75.5867 180.689 74.6 175.897 74.6V82.6C179.905 82.6 181.72 83.48 182.468 84.2284L188.125 78.5716ZM175.897 74.6H168.897V82.6H175.897V74.6ZM168.897 74.6C164.234 74.6 159.834 75.5888 156.966 78.6782L162.828 84.1218C163.426 83.4779 165.026 82.6 168.897 82.6V74.6ZM157.068 78.5716C154.21 81.4298 153.297 85.6906 153.297 90.2H161.297C161.297 86.4427 162.117 84.8368 162.725 84.2284L157.068 78.5716ZM153.297 90.2V96.6H161.297V90.2H153.297ZM153.297 96.6C153.297 97.0276 153.244 97.2438 153.223 97.3122C153.206 97.3634 153.229 97.2687 153.353 97.1381C153.411 97.0778 153.472 97.0296 153.528 96.9947C153.582 96.9606 153.616 96.9486 153.616 96.9486C153.608 96.9513 153.459 97 153.097 97V105C155.162 105 157.434 104.45 159.14 102.662C160.814 100.909 161.297 98.638 161.297 96.6H153.297ZM153.097 97H136.097V105H153.097V97ZM136.097 97C135.735 97 135.586 96.9513 135.578 96.9486C135.578 96.9486 135.612 96.9606 135.666 96.9947C135.722 97.0296 135.783 97.0778 135.84 97.1381C135.965 97.2687 135.987 97.3634 135.971 97.3122C135.949 97.2438 135.897 97.0276 135.897 96.6H127.897C127.897 98.638 128.38 100.909 130.053 102.662C131.76 104.45 134.032 105 136.097 105V97ZM135.897 96.6V89.8H127.897V96.6H135.897ZM135.897 89.8C135.897 80.1415 138.54 73.3028 143.292 68.6615L137.702 62.9385C130.987 69.4972 127.897 78.6585 127.897 89.8H135.897ZM143.292 68.6615C148.066 63.9986 155.068 61.4 164.897 61.4V53.4C153.659 53.4 144.395 56.4014 137.702 62.9385L143.292 68.6615ZM164.897 61.4H180.097V53.4H164.897V61.4ZM180.097 61.4C189.925 61.4 196.928 63.9986 201.702 68.6615L207.292 62.9385C200.599 56.4014 191.335 53.4 180.097 53.4V61.4ZM201.702 68.6615C206.454 73.3028 209.097 80.1415 209.097 89.8H217.097C217.097 78.6585 214.007 69.4972 207.292 62.9385L201.702 68.6615ZM209.097 89.8V97.8H217.097V89.8H209.097ZM209.097 97.8C209.097 107.014 205.622 114.504 198.506 120.552L203.687 126.648C212.572 119.096 217.097 109.386 217.097 97.8H209.097ZM198.504 120.554L160.904 152.554L166.089 158.646L203.689 126.646L198.504 120.554ZM160.794 152.651C158.591 154.671 157.097 157.275 157.097 160.4H165.097C165.097 160.059 165.203 159.462 166.2 158.549L160.794 152.651ZM157.097 160.4V163.6H165.097V160.4H157.097ZM161.097 167.6H208.897V159.6H161.097V167.6ZM208.897 167.6C209.275 167.6 209.444 167.649 209.469 167.657C209.478 167.66 209.45 167.652 209.398 167.621C209.345 167.589 209.282 167.542 209.218 167.478C209.155 167.415 209.108 167.352 209.076 167.299C209.045 167.247 209.037 167.219 209.04 167.227C209.048 167.253 209.097 167.421 209.097 167.8H217.097C217.097 165.783 216.59 163.536 214.875 161.822C213.161 160.107 210.913 159.6 208.897 159.6V167.6ZM209.097 167.8V181.8H217.097V167.8H209.097ZM209.097 181.8C209.097 182.179 209.048 182.347 209.04 182.373C209.037 182.381 209.045 182.353 209.076 182.301C209.108 182.248 209.155 182.185 209.218 182.122C209.282 182.058 209.345 182.011 209.398 181.979C209.45 181.948 209.478 181.94 209.469 181.943C209.444 181.951 209.275 182 208.897 182V190C210.913 190 213.161 189.493 214.875 187.778C216.59 186.064 217.097 183.817 217.097 181.8H209.097ZM208.897 182H136.897V190H208.897V182ZM136.897 182C136.518 182 136.35 181.951 136.324 181.943C136.316 181.94 136.344 181.948 136.395 181.979C136.449 182.011 136.512 182.058 136.575 182.122C136.639 182.185 136.686 182.248 136.717 182.301C136.748 182.353 136.757 182.381 136.754 182.373C136.746 182.347 136.697 182.179 136.697 181.8H128.697C128.697 183.817 129.204 186.064 130.918 187.778C132.633 189.493 134.88 190 136.897 190V182Z" fill="#202224" mask="url(#path-1-outside-1_1325_8239)"/>
<g clip-path="url(#clip0_1325_8239)">
<path d="M659.004 761.172H496.946C466.903 761.172 442.785 736.808 442.785 706.937V287.249C442.785 257.165 467.115 233.014 496.946 233.014H659.004C689.047 233.014 713.165 257.377 713.165 287.249V706.937C713.377 736.808 689.047 761.172 659.004 761.172Z" fill="#1EAB82"/>
<path d="M684.604 761.172H522.545C492.503 761.172 468.384 736.808 468.384 706.937V287.249C468.384 257.165 492.714 233.014 522.545 233.014H684.604C714.646 233.014 738.765 257.377 738.765 287.249V706.937C738.976 736.808 714.646 761.172 684.604 761.172Z" fill="#1EAB82"/>
<path d="M468.384 716.894V277.08" stroke="white" stroke-miterlimit="10"/>
<path d="M776 761.172H165" stroke="white" stroke-miterlimit="10"/>
<path d="M723.955 285.978H483.194V699.098H723.955V285.978Z" fill="#233F4E"/>
<path d="M611.624 748.994C622.538 744.5 627.747 731.997 623.259 721.068C618.771 710.139 606.285 704.923 595.371 709.417C584.458 713.911 579.248 726.414 583.736 737.343C588.224 748.272 600.71 753.488 611.624 748.994Z" fill="white"/>
<g opacity="0.3">
<path opacity="0.3" d="M540.528 347.84H513.448C509.428 347.84 506.043 344.45 506.043 340.425V313.308C506.043 309.282 509.428 305.893 513.448 305.893H540.528C544.548 305.893 547.933 309.282 547.933 313.308V340.425C547.933 344.45 544.548 347.84 540.528 347.84ZM513.448 306.952C509.851 306.952 507.101 309.706 507.101 313.308V340.425C507.101 344.027 509.851 346.781 513.448 346.781H540.528C544.125 346.781 546.875 344.027 546.875 340.425V313.308C546.875 309.706 544.125 306.952 540.528 306.952H513.448Z" fill="white"/>
</g>
<path d="M536.931 324.324H529.527V316.909H524.661V324.324H517.044V329.197H524.661V336.824H529.527V329.197H536.931V324.324Z" fill="white"/>
<g opacity="0.3">
<path opacity="0.3" d="M591.304 347.84H564.223C560.204 347.84 556.819 344.45 556.819 340.425V313.308C556.819 309.282 560.204 305.893 564.223 305.893H591.304C595.323 305.893 598.708 309.282 598.708 313.308V340.425C598.708 344.45 595.323 347.84 591.304 347.84ZM564.223 306.952C560.627 306.952 557.876 309.706 557.876 313.308V340.425C557.876 344.027 560.627 346.781 564.223 346.781H591.304C594.9 346.781 597.651 344.027 597.651 340.425V313.308C597.651 309.706 594.9 306.952 591.304 306.952H564.223Z" fill="white"/>
</g>
<path d="M587.707 324.324H580.302V316.909H575.436V324.324H567.82V329.197H575.436V336.824H580.302V329.197H587.707V324.324Z" fill="white"/>
<g opacity="0.3">
<path opacity="0.3" d="M642.291 347.84H615.211C611.191 347.84 607.806 344.45 607.806 340.425V313.308C607.806 309.282 611.191 305.893 615.211 305.893H642.291C646.311 305.893 649.696 309.282 649.696 313.308V340.425C649.696 344.45 646.522 347.84 642.291 347.84ZM615.211 306.952C611.614 306.952 608.864 309.706 608.864 313.308V340.425C608.864 344.027 611.614 346.781 615.211 346.781H642.291C645.888 346.781 648.638 344.027 648.638 340.425V313.308C648.638 309.706 645.888 306.952 642.291 306.952H615.211Z" fill="white"/>
</g>
<path d="M638.694 324.324H631.289V316.909H626.423V324.324H618.807V329.197H626.423V336.824H631.289V329.197H638.694V324.324Z" fill="white"/>
<g opacity="0.3">
<path opacity="0.3" d="M693.913 347.84H666.832C662.813 347.84 659.428 344.45 659.428 340.425V313.308C659.428 309.282 662.813 305.893 666.832 305.893H693.913C697.932 305.893 701.318 309.282 701.318 313.308V340.425C701.106 344.45 697.932 347.84 693.913 347.84ZM666.832 306.952C663.236 306.952 660.485 309.706 660.485 313.308V340.425C660.485 344.027 663.236 346.781 666.832 346.781H693.913C697.509 346.781 700.26 344.027 700.26 340.425V313.308C700.26 309.706 697.509 306.952 693.913 306.952H666.832Z" fill="white"/>
</g>
<path d="M690.316 324.324H682.7V316.909H677.834V324.324H670.217V329.197H677.834V336.824H682.7V329.197H690.316V324.324Z" fill="white"/>
<path d="M586.226 461.819H518.737C511.755 461.819 506.043 456.099 506.043 449.108V381.526C506.043 374.535 511.755 368.814 518.737 368.814H586.226C593.208 368.814 598.92 374.535 598.92 381.526V449.108C598.709 456.099 592.996 461.819 586.226 461.819Z" fill="#54B3CD"/>
<path d="M567.185 415.635C567.185 415.423 567.185 415.635 567.185 415.635C567.185 415.423 567.185 415.211 567.185 415.211C568.243 414.788 569.301 414.152 570.359 413.516C571.417 412.669 572.474 411.822 573.532 410.974L573.321 410.127C573.109 409.067 572.686 408.22 572.474 407.161C572.263 406.737 572.051 406.313 571.84 405.89C571.628 405.466 571.417 405.042 571.205 404.618L570.782 403.771C569.301 403.771 568.032 403.983 566.762 404.195C565.493 404.407 564.435 404.83 563.377 405.254L563.166 405.042C563.589 403.983 564.012 402.924 564.223 401.652C564.435 400.381 564.647 398.898 564.647 397.627L563.8 397.203C563.377 396.992 562.954 396.78 562.531 396.568C562.108 396.356 561.685 396.144 561.05 395.932C560.204 395.509 559.146 395.297 558.088 395.085L557.242 394.873C556.184 395.932 555.338 396.992 554.703 398.051C554.068 399.11 553.434 400.169 553.01 401.229H552.799H552.587C552.164 400.169 551.529 399.11 550.895 398.051C550.26 396.992 549.202 395.932 548.356 394.873L547.51 395.085C546.452 395.297 545.606 395.72 544.548 395.932C544.125 396.144 543.702 396.356 543.067 396.568C542.644 396.78 542.221 396.992 541.797 397.203L540.951 397.627C540.951 399.11 541.163 400.381 541.374 401.652C541.586 402.924 542.009 403.983 542.432 405.042L542.221 405.254C541.163 404.83 540.105 404.407 538.836 404.195C537.566 403.983 536.085 403.771 534.816 403.771L534.393 404.618C534.181 405.042 533.97 405.466 533.758 405.89C533.546 406.313 533.335 406.737 533.123 407.161C532.7 408.008 532.489 409.067 532.277 410.127L532.065 410.974C533.123 412.033 534.181 412.881 535.239 413.516C536.297 414.152 537.355 414.788 538.201 415.211V415.423V415.635C537.143 416.059 536.085 416.694 535.239 417.33C534.181 417.965 533.123 419.025 532.065 419.872L532.277 420.72C532.489 421.779 532.912 422.626 533.123 423.686C533.335 424.109 533.546 424.533 533.758 425.169C533.97 425.592 534.181 426.016 534.393 426.44L534.816 427.287C536.297 427.287 537.566 427.075 538.836 426.863C540.105 426.652 541.163 426.228 542.221 425.804L542.432 426.016C542.009 427.075 541.586 428.135 541.374 429.406C541.163 430.677 540.951 432.16 540.951 433.431L541.797 433.855C542.221 434.066 542.644 434.278 543.067 434.49C543.49 434.702 543.913 434.914 544.548 435.126C545.394 435.549 546.452 435.761 547.51 435.973L548.356 436.185C549.414 435.126 550.26 434.066 550.895 433.007C551.529 431.948 552.164 430.889 552.587 429.829H552.799H553.01C553.434 430.889 554.068 431.948 554.703 433.007C555.549 434.066 556.395 435.126 557.242 436.185L558.088 435.973C559.146 435.761 559.992 435.338 561.05 435.126C561.473 434.914 561.896 434.702 562.531 434.49C562.954 434.278 563.377 434.066 563.8 433.855L564.647 433.431C564.647 431.948 564.435 430.677 564.223 429.406C564.012 428.135 563.589 427.075 563.166 426.016L563.377 425.804C564.435 426.228 565.493 426.652 566.762 426.863C568.032 427.075 569.513 427.287 570.782 427.287L571.205 426.44C571.417 426.016 571.628 425.592 571.84 425.169C572.051 424.745 572.263 424.321 572.474 423.686C572.898 422.838 573.109 421.779 573.321 420.72L573.532 419.872C572.474 418.813 571.417 417.965 570.359 417.33C569.301 416.694 568.243 416.059 567.185 415.635ZM552.376 422.414C548.568 422.414 545.394 419.237 545.394 415.423C545.394 411.61 548.568 408.432 552.376 408.432C556.184 408.432 559.357 411.61 559.357 415.423C559.357 419.237 556.395 422.414 552.376 422.414Z" fill="white"/>
<path d="M687.989 461.819H620.5C613.518 461.819 607.806 456.099 607.806 449.108V381.526C607.806 374.535 613.518 368.814 620.5 368.814H687.989C694.971 368.814 700.683 374.535 700.683 381.526V449.108C700.471 456.099 694.971 461.819 687.989 461.819Z" fill="#EEBB48"/>
<path d="M644.83 410.972L634.463 414.574L644.83 418.175V424.107L627.27 417.751V411.608L644.83 405.252V410.972Z" fill="white"/>
<path d="M656.677 397.838H663.447L652.234 430.04H645.253L656.677 397.838Z" fill="white"/>
<path d="M681.007 411.609V417.752L663.447 424.108V418.176L673.814 414.575L663.447 410.973V405.041L681.007 411.609Z" fill="white"/>
<path d="M639.541 260.979H567.608V268.817H639.541V260.979Z" fill="#233F4E"/>
<path d="M520.641 583V674.31" stroke="white" stroke-miterlimit="10"/>
<path d="M512.602 587.236C512.602 589.355 510.909 591.261 508.582 591.261C506.466 591.261 504.562 589.567 504.562 587.236C504.562 585.118 506.255 583.211 508.582 583.211C510.697 583.211 512.602 585.118 512.602 587.236Z" fill="white"/>
<path d="M573.532 583.211H528.469V591.05H573.532V583.211Z" fill="#006890"/>
<path d="M640.175 583.211H581.572V591.05H640.175V583.211Z" fill="#FFD348"/>
<path d="M692.432 583.211H647.792V591.05H692.432V583.211Z" fill="white"/>
<path d="M512.602 601.008C512.602 603.126 510.909 605.033 508.582 605.033C506.466 605.033 504.562 603.338 504.562 601.008C504.562 598.889 506.255 596.982 508.582 596.982C510.697 597.194 512.602 598.889 512.602 601.008Z" fill="white"/>
<path d="M628.962 597.193H528.469V605.032H628.962V597.193Z" fill="#006890"/>
<path d="M661.12 597.193H636.79V605.032H661.12V597.193Z" fill="#FFD348"/>
<path d="M692.432 597.193H668.948V605.032H692.432V597.193Z" fill="white"/>
<path d="M512.602 614.99C512.602 617.109 510.909 619.015 508.582 619.015C506.466 619.015 504.562 617.321 504.562 614.99C504.562 612.872 506.255 610.965 508.582 610.965C510.697 610.965 512.602 612.66 512.602 614.99Z" fill="white"/>
<path d="M581.36 610.965H528.469V618.804H581.36V610.965Z" fill="#006890"/>
<path d="M661.332 610.965H589.4V618.804H661.332V610.965Z" fill="#FFD348"/>
<path d="M692.432 610.965H668.948V618.804H692.432V610.965Z" fill="white"/>
<path d="M512.602 628.762C512.602 630.88 510.909 632.787 508.582 632.787C506.466 632.787 504.562 631.092 504.562 628.762C504.562 626.643 506.255 624.736 508.582 624.736C510.697 624.948 512.602 626.643 512.602 628.762Z" fill="white"/>
<path d="M540.951 624.947H528.469V632.786H540.951V624.947Z" fill="#006890"/>
<path d="M581.572 624.947H548.991V632.786H581.572V624.947Z" fill="#FFD348"/>
<path d="M692.432 624.947H589.188V632.786H692.432V624.947Z" fill="white"/>
<path d="M512.602 642.744C512.602 644.863 510.909 646.769 508.582 646.769C506.466 646.769 504.562 645.074 504.562 642.744C504.562 640.414 506.255 638.719 508.582 638.719C510.697 638.719 512.602 640.414 512.602 642.744Z" fill="white"/>
<path d="M573.532 638.719H528.469V646.557H573.532V638.719Z" fill="#006890"/>
<path d="M661.332 638.719H581.572V646.557H661.332V638.719Z" fill="#FFD348"/>
<path d="M692.432 638.719H668.948V646.557H692.432V638.719Z" fill="white"/>
<path d="M512.602 656.514C512.602 658.632 510.909 660.539 508.582 660.539C506.466 660.539 504.562 658.844 504.562 656.514C504.562 654.183 506.255 652.488 508.582 652.488C510.697 652.488 512.602 654.395 512.602 656.514Z" fill="white"/>
<path d="M603.998 652.488H528.469V660.327H603.998V652.488Z" fill="#006890"/>
<path d="M640.175 652.488H612.037V660.327H640.175V652.488Z" fill="#FFD348"/>
<path d="M692.432 652.488H647.792V660.327H692.432V652.488Z" fill="white"/>
<path d="M512.602 670.285C512.602 672.404 510.909 674.31 508.582 674.31C506.466 674.31 504.562 672.615 504.562 670.285C504.562 668.166 506.255 666.26 508.582 666.26C510.697 666.472 512.602 668.166 512.602 670.285Z" fill="white"/>
<path d="M553.645 666.473H528.469V674.311H553.645V666.473Z" fill="#006890"/>
<path d="M661.12 666.473H561.473V674.311H661.12V666.473Z" fill="#FFD348"/>
<path d="M692.432 666.473H668.948V674.311H692.432V666.473Z" fill="white"/>
<path d="M700.471 583V674.31" stroke="white" stroke-miterlimit="10"/>
<path d="M590.034 483.217H506.466V491.055H590.034V483.217Z" fill="#EEBB48"/>
<path d="M641.233 495.928H506.466V503.766H641.233V495.928Z" fill="#54B3CD"/>
<path d="M551.529 508.852H506.466V516.69H551.529V508.852Z" fill="#EEBB48"/>
<path d="M602.728 521.562H506.466V529.401H602.728V521.562Z" fill="#54B3CD"/>
<path d="M538.836 534.486H506.466V542.325H538.836V534.486Z" fill="#EEBB48"/>
<path d="M666.832 547.197H506.466V555.036H666.832V547.197Z" fill="#54B3CD"/>
<path d="M362.813 416.906L355.409 417.542L352.447 384.704L353.928 384.492C357.101 384.28 360.063 386.61 360.275 389.788L362.813 416.906Z" fill="white"/>
<path d="M326.213 490.42C315.423 494.022 302.941 496.776 290.035 498.259C265.494 501.013 239.683 498.895 221.911 488.514C220.853 479.192 222.969 468.599 222.969 468.599C218.949 472.201 216.834 478.556 215.776 484.276C207.948 478.133 202.659 469.658 200.966 458.642C195.042 420.508 242.221 430.253 247.299 373.264C247.299 373.264 308.23 394.661 339.753 415.847C346.311 420.084 351.601 424.533 354.774 428.558C374.026 452.498 370.007 475.59 326.213 490.42Z" fill="#54B3CD"/>
<path d="M350.966 379.195C395.183 392.33 355.197 305.68 288.342 329.196C205.832 358.221 264.647 462.242 293.632 468.174C322.616 473.895 312.672 454.404 312.672 454.404L350.966 379.195Z" fill="#54B3CD"/>
<path d="M326.213 490.42C315.423 494.021 302.941 496.775 290.035 498.258C272.687 497.411 255.762 495.716 246.03 492.962C219.795 485.547 227.2 434.278 280.091 399.957L339.964 415.846C346.523 420.083 351.812 424.532 354.986 428.558C374.026 452.497 370.007 475.59 326.213 490.42Z" fill="#469EB2"/>
<path d="M337.637 473.472L325.79 480.251L293.632 478.345L286.015 424.109L332.348 433.855L333.617 442.965L337.637 473.472Z" fill="#E3B5AA"/>
<path d="M337.003 469.022C308.23 471.988 302.094 440.209 302.094 440.209L334.464 450.802L337.003 469.022Z" fill="#C87E84"/>
<path d="M294.69 431.948C300.613 445.083 320.289 460.125 336.579 457.583C350.543 455.252 362.39 443.6 360.063 415.635C360.063 415.423 360.063 415.423 360.063 415.211C359.64 406.525 356.89 396.992 356.89 385.339C356.89 342.756 288.131 381.314 288.131 381.314C288.131 381.314 285.804 412.457 294.69 431.948Z" fill="#E3B5AA"/>
<path d="M329.175 399.957H300.402V403.347H329.175V399.957Z" fill="white"/>
<path d="M359.217 404.195C352.447 398.898 354.139 391.695 354.139 391.695" stroke="#C87E84" stroke-width="0.5" stroke-miterlimit="10"/>
<path d="M342.926 439.787C342.926 440.846 344.83 441.693 347.158 441.905C349.485 442.117 351.6 441.27 351.6 440.21C351.6 439.151 349.696 438.304 347.369 438.092C345.042 438.092 342.926 438.727 342.926 439.787Z" fill="url(#paint0_linear_1325_8239)"/>
<path d="M301.46 379.408C315.846 418.813 293.209 425.38 293.209 425.38L279.88 399.958L268.032 374.535L297.017 373.688L301.46 379.408Z" fill="#54B3CD"/>
<path d="M299.344 379.406C298.498 370.72 305.691 372.415 305.691 372.415C312.673 388.304 316.269 402.287 311.192 407.371" fill="#54B3CD"/>
<path d="M294.689 408.008C288.131 396.992 279.245 396.144 275.014 408.432C270.571 420.932 282.419 431.948 292.574 428.558C302.729 425.381 294.689 408.008 294.689 408.008Z" fill="#E3B5AA"/>
<path d="M286.65 408.009C281.996 406.737 278.399 420.508 288.766 421.991L287.073 416.907L289.4 413.093L286.65 408.009Z" fill="#D78F97"/>
<path d="M290.458 423.686C284.746 416.907 289.4 412.669 289.4 412.669C289.4 412.669 284.323 400.594 281.572 409.492" stroke="#C87E84" stroke-width="0.5" stroke-miterlimit="10"/>
<path d="M340.176 380.042C327.482 387.669 318.385 387.881 328.751 380.466C339.118 373.051 346.523 376.229 340.176 380.042Z" fill="#54B3CD"/>
<path d="M339.753 407.795C341.657 407.583 343.138 405.888 343.138 403.982L342.926 400.38C342.715 398.473 341.022 396.99 339.118 396.99C337.214 397.202 335.733 398.897 335.733 400.804L335.945 404.405C336.156 406.312 337.849 407.795 339.753 407.795Z" fill="#233F4E"/>
<path d="M360.486 420.296C360.486 420.296 360.698 420.296 360.486 420.296C365.141 419.448 369.795 417.966 369.372 415C362.602 412.881 357.101 415.635 355.197 418.389C353.505 420.932 359.428 420.296 360.486 420.296Z" fill="#C87E84"/>
<path d="M354.562 432.372C354.562 432.372 349.062 438.304 340.599 431.736" stroke="#233F4E" stroke-width="0.75" stroke-miterlimit="10"/>
<path d="M276.072 348.899C261.474 330.892 243.279 315.85 238.413 323.477C233.336 331.104 266.975 348.476 266.975 348.476C266.975 348.476 240.317 332.375 237.355 344.027C234.394 355.679 269.09 355.467 269.09 355.467L276.072 348.899Z" fill="#54B3CD"/>
<path d="M328.963 403.347C329.386 412.245 334.675 419.236 340.599 419.024C346.523 418.812 350.966 411.185 350.543 402.288C350.12 393.39 344.83 386.398 338.907 386.61C332.983 386.822 328.54 394.449 328.963 403.347Z" stroke="white" stroke-width="2" stroke-miterlimit="10"/>
<path d="M369.372 414.999C369.16 409.914 353.293 399.957 353.293 399.957L355.409 418.389L369.372 414.999Z" fill="#E3B5AA"/>
<path d="M287.919 374.534C312.461 391.059 339.33 365.425 339.33 365.425L308.864 346.357L276.918 365.425L287.919 374.534Z" fill="#54B3CD"/>
<path d="M335.733 361.4C343.773 376.442 351.812 379.62 356.678 380.467C361.332 381.314 361.332 373.476 361.332 373.476L351.389 352.502L335.733 361.4Z" fill="#54B3CD"/>
<path d="M475.578 560.967L494.618 552.281L467.961 524.74C467.961 524.74 473.039 528.341 469.865 522.197C466.692 516.053 470.923 504.613 466.057 506.308C461.191 507.791 449.132 538.722 458.864 547.832C468.384 556.942 475.578 560.967 475.578 560.967Z" fill="#D78F97"/>
<path d="M248.357 711.386L262.108 716.682L271.629 689.988L266.551 685.963L246.876 689.564L248.357 711.386Z" fill="#C87E84"/>
<path d="M341.657 480.674C393.49 481.521 401.953 595.924 401.953 595.924C401.953 595.924 424.59 553.976 444.901 556.307L472.616 573.255C472.616 573.255 487.425 625.372 407.031 658.845C326.636 692.318 331.29 602.915 331.29 602.915L341.657 480.674Z" fill="#B5D6EB"/>
<path d="M300.613 480.673C300.613 480.673 253.011 480.25 244.76 493.808C220.642 533.849 276.706 681.725 276.706 681.725H394.548L398.78 609.694C398.78 609.694 436.227 583.212 384.605 529.188C358.794 502.071 341.657 480.673 341.657 480.673H300.613Z" fill="white"/>
<path d="M244.76 493.809C244.76 493.809 156.114 582.788 165.635 633.634C175.155 684.691 232.278 713.504 248.145 711.173L269.09 687.869C269.09 687.869 271.84 652.277 233.547 627.914C233.547 627.914 242.01 619.44 230.162 615.414L261.262 583.636L244.76 493.809Z" fill="white"/>
<path d="M213.872 612.66L230.162 615.626" stroke="#82B3CD" stroke-miterlimit="10"/>
<path d="M221.911 633L233.547 628.127" stroke="#82B3CD" stroke-miterlimit="10"/>
<path d="M259.993 523.893C271.84 556.73 258.3 587.026 258.3 587.026C258.3 587.026 272.475 578.552 275.014 561.603" stroke="#82B3CD" stroke-miterlimit="10"/>
<path d="M282.63 483.216C279.88 464.996 303.364 467.326 332.983 469.021C362.602 470.504 343.349 492.114 343.349 492.114L282.63 483.216Z" fill="white"/>
<path d="M431.995 826.001H230.162C230.162 826.001 233.336 784.265 270.994 694.862C272.687 690.625 274.591 686.176 276.706 681.727H394.548C396.875 685.752 399.203 690.201 401.318 694.862C423.533 744.224 431.995 826.001 431.995 826.001Z" fill="#233F4E"/>
<path d="M302.729 681.727C302.729 681.727 274.168 758.842 273.533 826.001" stroke="#3C5F7C" stroke-miterlimit="10"/>
<path d="M401.318 694.862H270.994C272.687 690.625 274.591 686.176 276.706 681.727H394.548C396.875 685.752 399.203 689.989 401.318 694.862Z" fill="#2F5363"/>
<path d="M281.361 703.334L266.763 696.131" stroke="#C87E84" stroke-width="0.5" stroke-miterlimit="10"/>
<path d="M288.554 700.581C289.823 697.827 288.554 694.649 285.804 693.378L270.148 686.598C267.398 685.327 264.224 686.598 262.955 689.352C261.685 692.106 262.955 695.284 265.705 696.555L281.361 703.335C284.111 704.606 287.285 703.335 288.554 700.581Z" fill="#E3B5AA"/>
<path d="M254.704 714.775C255.127 715.199 255.761 715.623 256.608 715.835L270.148 720.495C273.11 721.555 276.072 719.86 277.13 717.106C278.187 714.14 276.495 711.174 273.745 710.114L260.204 705.454C257.242 704.394 254.281 706.089 253.223 708.843C252.376 710.962 253.011 713.292 254.704 714.775Z" fill="#E3B5AA"/>
<path d="M252.376 718.165C253.011 716.258 255.127 714.987 257.031 715.622L266.34 718.588C268.244 719.224 269.513 721.343 268.878 723.249C268.244 725.156 266.128 726.427 264.224 725.792L254.915 722.825C252.8 722.402 251.742 720.071 252.376 718.165Z" fill="#E3B5AA"/>
<path d="M283.053 710.325C284.323 707.571 283.265 704.393 280.515 702.911L265.07 695.284C262.32 694.013 259.147 695.072 257.666 697.826C256.396 700.58 257.454 703.758 260.204 705.241L275.649 712.868C278.399 714.139 281.572 713.08 283.053 710.325Z" fill="#E3B5AA"/>
<path d="M263.378 706.725L275.649 712.868" stroke="#C87E84" stroke-width="0.5" stroke-miterlimit="10"/>
<path d="M266.34 718.589L259.358 716.047" stroke="#C87E84" stroke-width="0.5" stroke-miterlimit="10"/>
<path d="M266.974 695.709L279.034 701.853" stroke="#C87E84" stroke-width="0.5" stroke-miterlimit="10"/>
<path d="M267.398 674.1C260.839 677.066 243.702 686.599 232.912 708.42" stroke="#82B3CD" stroke-miterlimit="10"/>
<path d="M305.691 586.814C305.691 586.814 330.021 614.78 379.95 609.907C379.95 609.907 355.62 620.5 325.366 615.415" stroke="#82B3CD" stroke-miterlimit="10"/>
<path d="M472.827 573.255C483.829 564.145 477.693 558.425 470.288 553.976C462.884 549.527 454.633 534.485 445.112 556.306L472.827 573.255Z" fill="#B5D6EB"/>
<path d="M464.999 568.383L445.112 556.307" stroke="#82B3CD" stroke-miterlimit="10"/>
<path d="M340.811 491.691C324.943 499.106 287.285 485.971 287.285 485.971" stroke="#82B3CD" stroke-miterlimit="10"/>
<path d="M467.066 502.06L460.552 504.574L465.268 516.831L471.783 514.317L467.066 502.06Z" fill="white"/>
<path d="M481.501 460.336C485.098 469.657 484.04 479.826 479.386 487.877C476.424 493.173 471.769 497.622 466.057 500.588C465.211 501.012 464.153 501.436 463.095 501.859C446.593 508.215 427.975 499.953 421.628 483.428C417.82 473.683 419.09 463.513 424.167 455.251C427.341 449.955 431.995 445.717 437.919 442.963C438.554 442.54 439.4 442.328 440.035 442.116C456.748 435.548 475.154 443.811 481.501 460.336Z" fill="#B5D6EB"/>
<path opacity="0.5" d="M479.386 487.876C476.424 493.173 471.769 497.622 466.057 500.588L424.167 455.251C427.341 449.954 431.995 445.717 437.919 442.963L479.386 487.876Z" fill="white"/>
<path d="M463.942 503.978C446.382 510.758 426.494 501.86 419.724 484.276C412.954 466.692 421.84 446.777 439.4 439.998C456.96 433.218 476.847 442.116 483.617 459.7C490.387 477.284 481.501 497.199 463.942 503.978ZM442.573 448.26C429.456 453.345 423.109 467.963 427.975 481.098C433.053 494.233 447.651 500.589 460.768 495.716C473.885 490.631 480.232 476.013 475.366 462.878C470.288 449.743 455.69 443.176 442.573 448.26Z" fill="#233F4E"/>
<path d="M465.211 516.902L462.249 523.47L470.5 520.292L468.596 515.631L465.211 516.902Z" fill="#B83D5D"/>
<path d="M471.769 514.359L478.328 517.325L470.5 520.291L468.596 515.631L471.769 514.359Z" fill="#B83D5D"/>
<path d="M462.249 523.47L476.001 559.062C477.693 563.511 482.559 565.629 487.002 563.935C491.445 562.24 493.561 557.367 491.868 552.918L478.116 517.326L462.249 523.47Z" fill="#A63758"/>
<path d="M471.981 533.851L485.31 527.283" stroke="#C87E84" stroke-width="0.5" stroke-miterlimit="10"/>
<path d="M465.422 531.308C464.365 528.765 465.422 525.799 467.961 524.74L482.348 518.384C484.886 517.325 487.848 518.384 488.906 520.927C489.964 523.469 488.906 526.435 486.367 527.494L471.981 533.85C469.442 534.909 466.48 533.85 465.422 531.308Z" fill="#E3B5AA"/>
<path d="M496.311 544.23C495.888 544.654 495.253 545.077 494.618 545.289L482.348 549.526C479.809 550.374 476.847 549.103 476.001 546.348C475.154 543.806 476.424 540.84 479.174 539.993L491.445 535.756C493.984 534.908 496.946 536.179 497.792 538.933C498.427 540.84 497.792 542.959 496.311 544.23Z" fill="#E3B5AA"/>
<path d="M498.427 547.408C497.792 545.501 495.888 544.442 494.195 545.077L485.521 547.62C483.617 548.255 482.559 550.162 483.194 551.857C483.829 553.764 485.733 554.823 487.425 554.187L496.099 551.645C498.003 551.221 499.061 549.315 498.427 547.408Z" fill="#E3B5AA"/>
<path d="M470.288 540.206C469.019 537.663 470.077 534.697 472.616 533.426L486.791 526.435C489.329 525.164 492.291 526.223 493.561 528.766C494.83 531.308 493.772 534.274 491.233 535.545L477.059 542.536C474.731 543.807 471.558 542.748 470.288 540.206Z" fill="#E3B5AA"/>
<path d="M488.272 537.027L477.059 542.536" stroke="#C87E84" stroke-width="0.5" stroke-miterlimit="10"/>
<path d="M485.521 547.832L492.08 545.502" stroke="#C87E84" stroke-width="0.5" stroke-miterlimit="10"/>
<path d="M485.098 526.859L473.885 532.579" stroke="#C87E84" stroke-width="0.5" stroke-miterlimit="10"/>
<path d="M488.272 180.474H335.733C329.598 180.474 324.732 185.346 324.732 191.49V306.952C324.732 313.096 329.598 317.968 335.733 317.968H399.414L412.108 339.366L424.802 317.968H488.483C494.619 317.968 499.485 313.096 499.485 306.952V191.49C499.273 185.346 494.195 180.474 488.272 180.474Z" fill="white"/>
<path d="M445.959 239.369C449.767 258.224 437.708 276.656 418.878 280.469C400.049 284.283 381.643 272.207 377.835 253.352C374.026 234.497 386.086 216.065 404.915 212.252C423.956 208.226 442.15 220.514 445.959 239.369Z" fill="#1EAB82"/>
<path d="M409.569 267.122L388.836 246.148C386.932 244.242 386.932 241.064 388.836 239.157C390.74 237.25 393.914 237.25 395.818 239.157L408.512 251.869L425.648 228.564C427.341 226.446 430.303 225.81 432.418 227.505C434.534 229.2 435.169 232.166 433.476 234.284L409.569 267.122Z" fill="white"/>
<path d="M705.761 147H550.683C545.394 147 541.163 151.237 541.163 156.534V182.592C541.163 187.888 545.394 192.125 550.683 192.125H617.115L628.116 210.769L639.117 192.125H705.549C710.838 192.125 715.069 187.888 715.069 182.592V156.534C715.492 151.237 711.05 147 705.761 147Z" fill="white"/>
<path d="M645.041 156.534L648.003 162.466C648.215 162.889 648.638 163.101 649.061 163.313L655.62 164.372C656.677 164.584 657.312 166.067 656.466 166.703L651.6 171.364C651.177 171.787 651.177 172.211 651.177 172.635L652.235 179.202C652.446 180.262 651.177 181.321 650.119 180.685L644.195 177.508C643.772 177.296 643.349 177.296 642.926 177.508L637.002 180.685C635.944 181.321 634.675 180.262 634.886 179.202L635.944 172.635C635.944 172.211 635.944 171.787 635.521 171.364L630.655 166.703C629.809 165.855 630.232 164.372 631.501 164.372L638.06 163.313C638.483 163.313 638.906 162.889 639.117 162.466L642.079 156.534C643.137 155.474 644.618 155.474 645.041 156.534Z" fill="#F5D55E"/>
<path d="M613.095 156.534L616.057 162.466C616.268 162.889 616.692 163.101 617.115 163.313L623.673 164.372C624.731 164.584 625.366 166.067 624.519 166.703L619.653 171.364C619.23 171.787 619.23 172.211 619.23 172.635L620.288 179.202C620.5 180.262 619.23 181.321 618.173 180.685L612.249 177.508C611.826 177.296 611.402 177.296 610.979 177.508L605.055 180.685C603.998 181.321 602.728 180.262 602.94 179.202L603.998 172.635C603.998 172.211 603.998 171.787 603.575 171.364L598.709 166.703C597.862 165.855 598.285 164.372 599.555 164.372L606.113 163.313C606.536 163.313 606.96 162.889 607.171 162.466L610.133 156.534C610.979 155.474 612.46 155.474 613.095 156.534Z" fill="#F5D55E"/>
<path d="M580.937 156.534L583.899 162.466C584.111 162.889 584.534 163.101 584.957 163.313L591.515 164.372C592.573 164.584 593.208 166.067 592.362 166.703L587.496 171.364C587.072 171.787 587.072 172.211 587.072 172.635L588.13 179.202C588.342 180.262 587.072 181.321 586.015 180.685L580.091 177.508C579.668 177.296 579.245 177.296 578.821 177.508L572.898 180.685C571.84 181.321 570.57 180.262 570.782 179.202L571.84 172.635C571.84 172.211 571.84 171.787 571.417 171.364L566.974 166.703C566.127 165.855 566.551 164.372 567.82 164.372L574.379 163.313C574.802 163.313 575.225 162.889 575.436 162.466L578.398 156.534C578.821 155.474 580.302 155.474 580.937 156.534Z" fill="#F5D55E"/>
<path d="M677.199 156.534L680.161 162.466C680.373 162.889 680.796 163.101 681.219 163.313L687.777 164.372C688.835 164.584 689.47 166.067 688.624 166.703L683.758 171.364C683.335 171.787 683.335 172.211 683.335 172.635L684.392 179.202C684.604 180.262 683.335 181.321 682.277 180.685L676.353 177.508C675.93 177.296 675.507 177.296 675.084 177.508L669.16 180.685C668.102 181.321 666.833 180.262 667.044 179.202L668.102 172.635C668.102 172.211 668.102 171.787 667.679 171.364L662.813 166.703C661.967 165.855 662.39 164.372 663.659 164.372L670.218 163.313C670.641 163.313 671.064 162.889 671.275 162.466L674.237 156.534C675.295 155.474 676.776 155.474 677.199 156.534Z" fill="#F5D55E"/>
<path d="M271.629 181.32H197.793C193.138 181.32 189.33 185.134 189.33 189.795V263.732C189.33 268.393 193.138 272.207 197.793 272.207H271.629C276.283 272.207 280.092 268.393 280.092 263.732V189.795C280.092 185.134 276.283 181.32 271.629 181.32Z" fill="white"/>
<path d="M221.276 227.505C223.604 228.141 224.661 229.836 224.661 233.226V237.251C224.661 239.158 225.719 240.217 227.623 240.217H228.046V247.42H224.873C218.314 247.42 215.141 244.03 215.141 238.522V233.226C215.141 231.954 214.295 231.319 213.237 231.319H211.756V224.116H213.237C214.295 224.116 215.141 223.48 215.141 222.209V216.913C215.141 211.192 218.526 208.015 224.873 208.015H228.046V214.794H227.623C225.719 214.794 224.661 215.853 224.661 217.76V221.785C224.661 225.175 223.604 226.658 221.276 227.505Z" fill="#54B3CD"/>
<path d="M257.666 223.904V231.107H256.185C255.127 231.107 254.281 231.742 254.281 233.013V238.098C254.281 243.818 250.896 246.996 244.549 246.996H241.375V239.793H241.798C243.702 239.793 244.76 238.734 244.76 236.827V232.802C244.76 229.412 245.818 227.929 248.145 227.081C245.818 226.446 244.76 224.751 244.76 221.361V217.336C244.76 215.429 243.702 214.37 241.798 214.37H241.375V207.167H244.549C251.107 207.167 254.281 210.557 254.281 216.065V221.361C254.281 222.633 255.127 223.268 256.185 223.268H257.666V223.904Z" fill="#54B3CD"/>
</g>
<defs>
<linearGradient id="paint0_linear_1325_8239" x1="351.688" y1="440.287" x2="342.957" y2="439.857" gradientUnits="userSpaceOnUse">
<stop stop-color="#D78F97"/>
<stop offset="1" stop-color="#D19097" stop-opacity="0"/>
</linearGradient>
<clipPath id="clip0_1325_8239">
<rect width="611" height="679" fill="white" transform="translate(165 147)"/>
</clipPath>
</defs>
</svg>
