<svg width="745" height="866" viewBox="0 0 745 866" fill="none" xmlns="http://www.w3.org/2000/svg">
<mask id="path-1-outside-1_1325_8419" maskUnits="userSpaceOnUse" x="520" y="53" width="213" height="137" fill="black">
<rect fill="white" x="520" y="53" width="213" height="137"/>
<path d="M561.808 164H573.608C577.874 164 580.874 163.133 582.608 161.4C584.341 159.533 585.208 156.467 585.208 152.2V91.2C585.208 86.9333 584.341 83.9333 582.608 82.2C580.874 80.3333 577.874 79.4 573.608 79.4H561.808C557.541 79.4 554.541 80.3333 552.808 82.2C551.074 83.9333 550.208 86.9333 550.208 91.2V152.2C550.208 156.467 551.074 159.533 552.808 161.4C554.541 163.133 557.541 164 561.808 164ZM577.608 186H557.608C547.074 186 538.941 183.2 533.208 177.6C527.474 172 524.608 163.933 524.608 153.4V90C524.608 79.4667 527.474 71.4 533.208 65.8C538.941 60.2 547.074 57.4 557.608 57.4H577.608C588.008 57.4 596.074 60.2667 601.808 66C607.541 71.6 610.408 79.6 610.408 90V153.4C610.408 163.8 607.541 171.867 601.808 177.6C596.074 183.2 588.008 186 577.608 186ZM681.034 111.2H691.234C695.634 111.2 698.768 110.333 700.634 108.6C702.634 106.733 703.634 103.733 703.634 99.6V90.2C703.634 86.0667 702.634 83.1333 700.634 81.4C698.768 79.5333 695.634 78.6 691.234 78.6H681.634C677.368 78.6 674.368 79.5333 672.634 81.4C670.901 83.1333 670.034 86.0667 670.034 90.2V95.2C670.034 98 668.634 99.4 665.834 99.4H648.834C646.034 99.4 644.634 98 644.634 95.2V89.8C644.634 79.4 647.501 71.4 653.234 65.8C658.968 60.2 667.101 57.4 677.634 57.4H695.434C705.968 57.4 714.101 60.2 719.834 65.8C725.568 71.4 728.434 79.4 728.434 89.8V99.8C728.434 111 723.168 118.267 712.634 121.6C723.168 123.867 728.434 131.133 728.434 143.4V153.6C728.434 164 725.568 172 719.834 177.6C714.101 183.2 705.968 186 695.434 186H677.634C667.101 186 658.968 183.2 653.234 177.6C647.501 172 644.634 164 644.634 153.6V148C644.634 145.067 646.034 143.6 648.834 143.6H665.834C668.634 143.6 670.034 145.067 670.034 148V153.2C670.034 157.467 670.901 160.467 672.634 162.2C674.368 163.933 677.368 164.8 681.634 164.8H691.234C695.634 164.8 698.768 163.933 700.634 162.2C702.634 160.333 703.634 157.333 703.634 153.2V143.4C703.634 139.267 702.634 136.333 700.634 134.6C698.768 132.733 695.634 131.8 691.234 131.8H681.034C678.234 131.8 676.834 130.4 676.834 127.6V115.6C676.834 112.667 678.234 111.2 681.034 111.2Z"/>
</mask>
<path d="M582.608 161.4L585.436 164.228L585.489 164.176L585.539 164.122L582.608 161.4ZM582.608 82.2L579.677 84.9218L579.727 84.9761L579.779 85.0284L582.608 82.2ZM552.808 82.2L555.636 85.0284L555.689 84.9761L555.739 84.9218L552.808 82.2ZM552.808 161.4L549.877 164.122L549.927 164.176L549.979 164.228L552.808 161.4ZM533.208 177.6L530.413 180.462L533.208 177.6ZM533.208 65.8L530.413 62.9385L533.208 65.8ZM601.808 66L598.979 68.8284L598.996 68.8451L599.013 68.8615L601.808 66ZM601.808 177.6L604.603 180.462L604.62 180.445L604.636 180.428L601.808 177.6ZM561.808 168H573.608V160H561.808V168ZM573.608 168C578.207 168 582.56 167.105 585.436 164.228L579.779 158.572C579.189 159.162 577.542 160 573.608 160V168ZM585.539 164.122C588.295 161.153 589.208 156.84 589.208 152.2H581.208C581.208 156.093 580.387 157.913 579.677 158.678L585.539 164.122ZM589.208 152.2V91.2H581.208V152.2H589.208ZM589.208 91.2C589.208 86.6011 588.313 82.2479 585.436 79.3716L579.779 85.0284C580.37 85.6187 581.208 87.2656 581.208 91.2H589.208ZM585.539 79.4782C582.67 76.3888 578.27 75.4 573.608 75.4V83.4C577.479 83.4 579.079 84.2779 579.677 84.9218L585.539 79.4782ZM573.608 75.4H561.808V83.4H573.608V75.4ZM561.808 75.4C557.145 75.4 552.745 76.3888 549.877 79.4782L555.739 84.9218C556.337 84.2779 557.937 83.4 561.808 83.4V75.4ZM549.979 79.3716C547.103 82.2479 546.208 86.6011 546.208 91.2H554.208C554.208 87.2656 555.046 85.6187 555.636 85.0284L549.979 79.3716ZM546.208 91.2V152.2H554.208V91.2H546.208ZM546.208 152.2C546.208 156.84 547.12 161.153 549.877 164.122L555.739 158.678C555.029 157.913 554.208 156.093 554.208 152.2H546.208ZM549.979 164.228C552.856 167.105 557.209 168 561.808 168V160C557.873 160 556.227 159.162 555.636 158.572L549.979 164.228ZM577.608 182H557.608V190H577.608V182ZM557.608 182C547.779 182 540.777 179.401 536.003 174.738L530.413 180.462C537.106 186.999 546.37 190 557.608 190V182ZM536.003 174.738C531.26 170.106 528.608 163.209 528.608 153.4H520.608C520.608 164.658 523.689 173.894 530.413 180.462L536.003 174.738ZM528.608 153.4V90H520.608V153.4H528.608ZM528.608 90C528.608 80.191 531.26 73.2936 536.003 68.6615L530.413 62.9385C523.689 69.5064 520.608 78.7423 520.608 90H528.608ZM536.003 68.6615C540.777 63.9986 547.779 61.4 557.608 61.4V53.4C546.37 53.4 537.106 56.4014 530.413 62.9385L536.003 68.6615ZM557.608 61.4H577.608V53.4H557.608V61.4ZM577.608 61.4C587.261 61.4 594.192 64.0414 598.979 68.8284L604.636 63.1716C597.957 56.4919 588.755 53.4 577.608 53.4V61.4ZM599.013 68.8615C603.765 73.5028 606.408 80.3415 606.408 90H614.408C614.408 78.8585 611.318 69.6972 604.603 63.1385L599.013 68.8615ZM606.408 90V153.4H614.408V90H606.408ZM606.408 153.4C606.408 163.053 603.766 169.985 598.979 174.772L604.636 180.428C611.316 173.749 614.408 164.547 614.408 153.4H606.408ZM599.013 174.738C594.23 179.41 587.286 182 577.608 182V190C588.729 190 597.919 186.99 604.603 180.462L599.013 174.738ZM700.634 108.6L703.356 111.531L703.364 111.524L700.634 108.6ZM700.634 81.4L697.806 84.2284L697.907 84.3293L698.015 84.4228L700.634 81.4ZM672.634 81.4L675.463 84.2284L675.515 84.1761L675.566 84.1218L672.634 81.4ZM653.234 65.8L656.029 68.6615L653.234 65.8ZM712.634 121.6L711.428 117.786L697.047 122.337L711.793 125.51L712.634 121.6ZM653.234 177.6L656.029 174.738L653.234 177.6ZM672.634 162.2L669.806 165.028L672.634 162.2ZM700.634 162.2L703.356 165.131L703.364 165.124L700.634 162.2ZM700.634 134.6L697.806 137.428L697.907 137.529L698.015 137.623L700.634 134.6ZM681.034 115.2H691.234V107.2H681.034V115.2ZM691.234 115.2C695.968 115.2 700.37 114.304 703.356 111.531L697.913 105.669C697.165 106.363 695.301 107.2 691.234 107.2V115.2ZM703.364 111.524C706.511 108.587 707.634 104.278 707.634 99.6H699.634C699.634 103.189 698.758 104.88 697.905 105.676L703.364 111.524ZM707.634 99.6V90.2H699.634V99.6H707.634ZM707.634 90.2C707.634 85.5546 706.524 81.2111 703.254 78.3772L698.015 84.4228C698.745 85.0556 699.634 86.5787 699.634 90.2H707.634ZM703.463 78.5716C700.478 75.5867 696.026 74.6 691.234 74.6V82.6C695.242 82.6 697.057 83.48 697.806 84.2284L703.463 78.5716ZM691.234 74.6H681.634V82.6H691.234V74.6ZM681.634 74.6C676.972 74.6 672.572 75.5888 669.703 78.6782L675.566 84.1218C676.163 83.4779 677.764 82.6 681.634 82.6V74.6ZM669.806 78.5716C666.948 81.4298 666.034 85.6906 666.034 90.2H674.034C674.034 86.4427 674.854 84.8368 675.463 84.2284L669.806 78.5716ZM666.034 90.2V95.2H674.034V90.2H666.034ZM666.034 95.2C666.034 95.5786 665.986 95.747 665.977 95.7726C665.974 95.7814 665.983 95.753 666.014 95.7014C666.046 95.6484 666.093 95.5849 666.156 95.5216C666.219 95.4583 666.283 95.4112 666.336 95.3794C666.387 95.3484 666.416 95.3398 666.407 95.3428C666.381 95.3513 666.213 95.4 665.834 95.4V103.4C667.851 103.4 670.098 102.893 671.813 101.178C673.528 99.4637 674.034 97.2166 674.034 95.2H666.034ZM665.834 95.4H648.834V103.4H665.834V95.4ZM648.834 95.4C648.456 95.4 648.287 95.3513 648.262 95.3428C648.253 95.3398 648.281 95.3484 648.333 95.3794C648.386 95.4112 648.45 95.4583 648.513 95.5216C648.576 95.5849 648.623 95.6484 648.655 95.7014C648.686 95.753 648.695 95.7814 648.692 95.7726C648.683 95.747 648.634 95.5786 648.634 95.2H640.634C640.634 97.2166 641.141 99.4637 642.856 101.178C644.571 102.893 646.818 103.4 648.834 103.4V95.4ZM648.634 95.2V89.8H640.634V95.2H648.634ZM648.634 89.8C648.634 80.1415 651.278 73.3028 656.029 68.6615L650.439 62.9385C643.725 69.4972 640.634 78.6585 640.634 89.8H648.634ZM656.029 68.6615C660.803 63.9986 667.806 61.4 677.634 61.4V53.4C666.396 53.4 657.132 56.4014 650.439 62.9385L656.029 68.6615ZM677.634 61.4H695.434V53.4H677.634V61.4ZM695.434 61.4C705.263 61.4 712.265 63.9986 717.039 68.6615L722.629 62.9385C715.937 56.4014 706.673 53.4 695.434 53.4V61.4ZM717.039 68.6615C721.791 73.3028 724.434 80.1415 724.434 89.8H732.434C732.434 78.6585 729.344 69.4972 722.629 62.9385L717.039 68.6615ZM724.434 89.8V99.8H732.434V89.8H724.434ZM724.434 99.8C724.434 104.768 723.273 108.505 721.246 111.303C719.222 114.095 716.07 116.317 711.428 117.786L713.841 125.414C719.733 123.549 724.48 120.472 727.723 115.997C730.962 111.528 732.434 106.032 732.434 99.8H724.434ZM711.793 125.51C716.299 126.48 719.303 128.417 721.246 131.097C723.232 133.838 724.434 137.807 724.434 143.4H732.434C732.434 136.727 731.004 130.929 727.723 126.403C724.399 121.816 719.503 118.987 713.476 117.69L711.793 125.51ZM724.434 143.4V153.6H732.434V143.4H724.434ZM724.434 153.6C724.434 163.258 721.791 170.097 717.039 174.738L722.629 180.462C729.344 173.903 732.434 164.742 732.434 153.6H724.434ZM717.039 174.738C712.265 179.401 705.263 182 695.434 182V190C706.673 190 715.937 186.999 722.629 180.462L717.039 174.738ZM695.434 182H677.634V190H695.434V182ZM677.634 182C667.806 182 660.803 179.401 656.029 174.738L650.439 180.462C657.132 186.999 666.396 190 677.634 190V182ZM656.029 174.738C651.278 170.097 648.634 163.258 648.634 153.6H640.634C640.634 164.742 643.725 173.903 650.439 180.462L656.029 174.738ZM648.634 153.6V148H640.634V153.6H648.634ZM648.634 148C648.634 147.572 648.687 147.356 648.709 147.288C648.725 147.237 648.702 147.331 648.578 147.462C648.52 147.522 648.459 147.57 648.404 147.605C648.349 147.639 648.315 147.651 648.316 147.651C648.323 147.649 648.472 147.6 648.834 147.6V139.6C646.769 139.6 644.497 140.15 642.791 141.938C641.118 143.691 640.634 145.962 640.634 148H648.634ZM648.834 147.6H665.834V139.6H648.834V147.6ZM665.834 147.6C666.196 147.6 666.346 147.649 666.353 147.651C666.353 147.651 666.319 147.639 666.265 147.605C666.21 147.57 666.149 147.522 666.091 147.462C665.966 147.331 665.944 147.237 665.96 147.288C665.982 147.356 666.034 147.572 666.034 148H674.034C674.034 145.962 673.551 143.691 671.878 141.938C670.171 140.15 667.9 139.6 665.834 139.6V147.6ZM666.034 148V153.2H674.034V148H666.034ZM666.034 153.2C666.034 157.799 666.93 162.152 669.806 165.028L675.463 159.372C674.873 158.781 674.034 157.134 674.034 153.2H666.034ZM669.806 165.028C672.682 167.905 677.035 168.8 681.634 168.8V160.8C677.7 160.8 676.053 159.962 675.463 159.372L669.806 165.028ZM681.634 168.8H691.234V160.8H681.634V168.8ZM691.234 168.8C695.968 168.8 700.37 167.904 703.356 165.131L697.913 159.269C697.165 159.963 695.301 160.8 691.234 160.8V168.8ZM703.364 165.124C706.511 162.187 707.634 157.878 707.634 153.2H699.634C699.634 156.789 698.758 158.48 697.905 159.276L703.364 165.124ZM707.634 153.2V143.4H699.634V153.2H707.634ZM707.634 143.4C707.634 138.755 706.524 134.411 703.254 131.577L698.015 137.623C698.745 138.256 699.634 139.779 699.634 143.4H707.634ZM703.463 131.772C700.478 128.787 696.026 127.8 691.234 127.8V135.8C695.242 135.8 697.057 136.68 697.806 137.428L703.463 131.772ZM691.234 127.8H681.034V135.8H691.234V127.8ZM681.034 127.8C680.656 127.8 680.487 127.751 680.462 127.743C680.453 127.74 680.481 127.748 680.533 127.779C680.586 127.811 680.65 127.858 680.713 127.922C680.776 127.985 680.823 128.048 680.855 128.101C680.886 128.153 680.895 128.181 680.892 128.173C680.883 128.147 680.834 127.979 680.834 127.6H672.834C672.834 129.617 673.341 131.864 675.056 133.578C676.771 135.293 679.018 135.8 681.034 135.8V127.8ZM680.834 127.6V115.6H672.834V127.6H680.834ZM680.834 115.6C680.834 115.172 680.887 114.956 680.909 114.888C680.925 114.837 680.902 114.931 680.778 115.062C680.72 115.122 680.659 115.17 680.604 115.205C680.549 115.239 680.515 115.251 680.516 115.251C680.523 115.249 680.672 115.2 681.034 115.2V107.2C678.969 107.2 676.697 107.75 674.991 109.538C673.318 111.291 672.834 113.562 672.834 115.6H680.834Z" fill="#202224" mask="url(#path-1-outside-1_1325_8419)"/>
<g clip-path="url(#clip0_1325_8419)">
<path d="M409.559 866H162.849C135.534 866 113.264 843.849 113.264 816.291V236.184C113.438 208.801 135.534 186.65 162.849 186.65H409.559C436.874 186.65 459.144 208.801 459.144 236.359V816.466C459.144 843.849 436.874 866 409.559 866Z" fill="#E5EDFD"/>
<path d="M409.559 203.569C427.479 203.569 442.094 218.22 442.094 236.184V816.291C442.094 834.256 427.479 848.907 409.559 848.907H162.849C144.929 848.907 130.314 834.256 130.314 816.291V236.184C130.314 218.22 144.929 203.569 162.849 203.569H409.559ZM409.559 186.65H162.849C135.534 186.65 113.264 208.801 113.264 236.359V816.466C113.264 843.849 135.36 866.174 162.849 866.174H409.559C436.874 866.174 459.144 844.023 459.144 816.466V236.184C459.144 208.801 436.874 186.65 409.559 186.65Z" fill="#060000"/>
<path d="M363.453 188.395H209.129V206.359C209.129 214.382 215.566 220.836 223.57 220.836H349.186C357.189 220.836 363.627 214.382 363.627 206.359V188.395H363.453Z" fill="#060000"/>
<path d="M257.496 201.824H316.651" stroke="white" stroke-width="0.764" stroke-miterlimit="10" stroke-linecap="round" stroke-linejoin="round"/>
<path d="M347.968 791.35H171.548C163.893 791.35 157.804 785.245 157.804 777.571V630.015C157.804 622.341 163.893 616.236 171.548 616.236H347.968C355.624 616.236 361.713 622.341 361.713 630.015V777.571C361.713 785.245 355.45 791.35 347.968 791.35Z" fill="#9BBDF9"/>
<path d="M232.269 692.282H191.73C188.773 692.282 186.163 689.84 186.163 686.701V646.062C186.163 643.097 188.599 640.48 191.73 640.48H232.269C235.226 640.48 237.836 642.922 237.836 646.062V686.701C237.836 689.84 235.4 692.282 232.269 692.282Z" fill="white"/>
<path d="M255.409 656.875H301.862" stroke="black" stroke-width="1.3" stroke-miterlimit="10" stroke-linecap="round" stroke-linejoin="round"/>
<path d="M255.409 673.619H330.396" stroke="black" stroke-width="1.3" stroke-miterlimit="10" stroke-linecap="round" stroke-linejoin="round"/>
<path d="M186.337 713.734H237.836" stroke="white" stroke-width="1.3" stroke-miterlimit="10" stroke-linecap="round" stroke-linejoin="round"/>
<path d="M186.337 730.828H330.396" stroke="white" stroke-width="1.3" stroke-miterlimit="10" stroke-linecap="round" stroke-linejoin="round"/>
<path d="M186.337 749.84H330.396" stroke="white" stroke-width="1.3" stroke-miterlimit="10" stroke-linecap="round" stroke-linejoin="round"/>
<path d="M81.3356 364.299C86.6213 342.092 72.9489 319.795 50.7976 314.496C28.6462 309.198 6.40418 322.904 1.11856 345.11C-4.16706 367.317 9.50531 389.614 31.6566 394.913C53.808 400.211 76.05 386.505 81.3356 364.299Z" fill="#DC761C"/>
<path d="M24.7058 356.706L37.5806 366.299L59.8506 343.102" stroke="white" stroke-width="2.1361" stroke-miterlimit="10" stroke-linecap="round" stroke-linejoin="round"/>
<path d="M202.517 578.912H64.3741C59.3285 578.912 55.3269 574.9 55.3269 569.842V473.216C55.3269 468.158 59.3285 464.146 64.3741 464.146H202.691C207.737 464.146 211.739 468.158 211.739 473.216V569.842C211.565 574.9 207.563 578.912 202.517 578.912Z" fill="#4479FA"/>
<path d="M157.456 512.285C157.456 498.68 146.321 487.518 132.75 487.518C119.179 487.518 108.044 498.68 108.044 512.285C108.044 516.819 109.262 521.18 111.524 524.843V525.017C112.394 526.587 113.612 528.156 114.829 529.377L132.75 553.098L150.67 529.377C151.888 527.982 153.106 526.587 153.976 524.843C156.238 521.18 157.456 516.819 157.456 512.285ZM132.924 523.098C127.008 523.098 122.137 518.215 122.137 512.285C122.137 506.354 127.008 501.471 132.924 501.471C138.839 501.471 143.711 506.354 143.711 512.285C143.711 518.215 138.839 523.098 132.924 523.098Z" fill="white"/>
<path d="M405.383 447.403H167.025C159.369 447.403 153.28 441.298 153.28 433.624V286.068C153.28 278.394 159.369 272.289 167.025 272.289H405.383C413.038 272.289 419.128 278.394 419.128 286.068V433.624C419.128 441.298 413.038 447.403 405.383 447.403Z" fill="white"/>
<path d="M215.392 359.148H179.9C177.29 359.148 175.028 357.055 175.028 354.265V318.858C175.028 316.242 177.116 313.975 179.9 313.975H215.392C218.002 313.975 220.264 316.068 220.264 318.858V354.439C220.264 357.055 218.002 359.148 215.392 359.148Z" fill="#9BBDF9"/>
<path d="M272.981 359.148H237.488C234.879 359.148 232.617 357.055 232.617 354.265V318.858C232.617 316.242 234.705 313.975 237.488 313.975H272.981C275.591 313.975 277.853 316.068 277.853 318.858V354.439C277.679 357.055 275.591 359.148 272.981 359.148Z" fill="#9BBDF9"/>
<path d="M330.396 359.148H294.903C292.293 359.148 290.032 357.055 290.032 354.265V318.858C290.032 316.242 292.119 313.975 294.903 313.975H330.396C333.006 313.975 335.267 316.068 335.267 318.858V354.439C335.267 357.055 333.006 359.148 330.396 359.148Z" fill="#9BBDF9"/>
<path d="M387.985 359.148H352.492C349.882 359.148 347.62 357.055 347.62 354.265V318.858C347.62 316.242 349.708 313.975 352.492 313.975H387.985C390.594 313.975 392.856 316.068 392.856 318.858V354.439C392.682 357.055 390.594 359.148 387.985 359.148Z" fill="#DC761C"/>
<path d="M215.392 420.194H179.9C177.29 420.194 175.028 418.101 175.028 415.31V379.729C175.028 377.113 177.116 374.846 179.9 374.846H215.392C218.002 374.846 220.264 376.939 220.264 379.729V415.31C220.264 418.101 218.002 420.194 215.392 420.194Z" fill="#9BBDF9"/>
<path d="M272.981 420.194H237.488C234.879 420.194 232.617 418.101 232.617 415.31V379.729C232.617 377.113 234.705 374.846 237.488 374.846H272.981C275.591 374.846 277.853 376.939 277.853 379.729V415.31C277.679 418.101 275.591 420.194 272.981 420.194Z" fill="#9BBDF9"/>
<path d="M330.396 420.194H294.903C292.293 420.194 290.032 418.101 290.032 415.31V379.729C290.032 377.113 292.119 374.846 294.903 374.846H330.396C333.006 374.846 335.267 376.939 335.267 379.729V415.31C335.267 418.101 333.006 420.194 330.396 420.194Z" fill="#9BBDF9"/>
<path d="M387.985 420.194H352.492C349.882 420.194 347.62 418.101 347.62 415.31V379.729C347.62 377.113 349.708 374.846 352.492 374.846H387.985C390.594 374.846 392.856 376.939 392.856 379.729V415.31C392.682 418.101 390.594 420.194 387.985 420.194Z" fill="#9BBDF9"/>
<path d="M188.077 296.532C188.077 301.066 184.945 303.159 181.987 303.159C178.682 303.159 176.072 300.717 176.072 296.706C176.072 292.52 178.856 290.078 182.161 290.078C185.815 290.253 188.077 292.694 188.077 296.532ZM178.334 296.706C178.334 299.497 179.9 301.415 182.161 301.415C184.249 301.415 185.989 299.322 185.989 296.532C185.989 294.439 184.945 291.822 182.335 291.822C179.726 291.822 178.334 294.264 178.334 296.706Z" fill="#DC761C"/>
<path d="M201.126 302.463C200.604 302.812 199.212 303.161 197.646 303.161C193.992 303.161 191.557 300.544 191.557 296.882C191.557 293.045 194.166 290.254 198.168 290.254C199.56 290.254 200.604 290.603 201.3 290.952L200.778 292.696C200.256 292.347 199.386 292.172 198.168 292.172C195.384 292.172 193.818 294.265 193.818 296.882C193.818 299.672 195.732 301.591 198.168 301.591C199.386 301.591 200.256 301.242 200.952 300.893L201.126 302.463Z" fill="#DC761C"/>
<path d="M208.085 286.939V290.428H211.391V292.172H208.085V298.8C208.085 300.369 208.433 301.242 209.825 301.242C210.347 301.242 210.869 301.242 211.043 301.067L211.217 302.811C210.869 302.986 210.173 303.16 209.303 303.16C208.259 303.16 207.389 302.811 206.867 302.288C206.171 301.59 205.997 300.544 205.997 298.974V292.172H204.083V290.428H205.997V287.463L208.085 286.939Z" fill="#DC761C"/>
<path d="M226.179 296.532C226.179 301.066 223.048 303.159 220.09 303.159C216.784 303.159 214.175 300.717 214.175 296.706C214.175 292.52 216.958 290.078 220.264 290.078C223.744 290.253 226.179 292.694 226.179 296.532ZM216.262 296.706C216.262 299.497 217.828 301.415 220.09 301.415C222.178 301.415 223.918 299.322 223.918 296.532C223.918 294.439 222.874 291.822 220.264 291.822C217.654 291.822 216.262 294.264 216.262 296.706Z" fill="#DC761C"/>
<path d="M230.181 302.811C230.181 301.939 230.355 300.718 230.355 299.672V284.672H232.617V292.521C233.487 291.125 234.879 290.253 236.793 290.253C239.924 290.253 242.012 292.869 242.012 296.532C242.012 300.893 239.228 303.16 236.445 303.16C234.705 303.16 233.139 302.462 232.269 300.893L232.095 302.986H230.181V302.811ZM232.443 297.927C232.443 298.276 232.443 298.451 232.617 298.8C232.965 300.369 234.357 301.416 235.923 301.416C238.358 301.416 239.75 299.497 239.75 296.707C239.75 294.265 238.532 292.172 236.097 292.172C234.531 292.172 233.139 293.218 232.617 294.962C232.617 295.137 232.443 295.486 232.443 295.834V297.927Z" fill="#DC761C"/>
<path d="M247.232 297.055C247.232 300.02 249.145 301.415 251.407 301.415C252.973 301.415 254.017 301.066 254.887 300.717L255.235 302.287C254.365 302.636 253.147 302.985 251.059 302.985C247.232 302.985 244.97 300.543 244.97 296.706C244.97 292.869 247.232 290.078 250.711 290.078C254.713 290.078 255.757 293.566 255.757 296.008C255.757 296.531 255.757 296.88 255.757 297.055H247.232ZM253.843 295.485C253.843 294.09 253.321 291.822 250.711 291.822C248.449 291.822 247.406 293.915 247.232 295.485H253.843Z" fill="#DC761C"/>
<path d="M260.106 294.264C260.106 292.869 260.106 291.473 259.932 290.427H261.846V292.869H262.02C262.542 291.125 263.934 290.078 265.5 290.078C265.674 290.078 265.848 290.078 266.196 290.078V292.171C266.022 292.171 265.674 292.171 265.5 292.171C263.934 292.171 262.716 293.392 262.542 295.136C262.542 295.485 262.368 295.834 262.368 296.183V302.81H260.106V294.264Z" fill="#DC761C"/>
<path d="M410.255 578.912H254.365C249.319 578.912 245.318 574.9 245.318 569.842V473.216C245.318 468.158 249.319 464.146 254.365 464.146H410.255C415.3 464.146 419.302 468.158 419.302 473.216V569.842C419.128 574.9 415.126 578.912 410.255 578.912Z" fill="white"/>
<path d="M395.466 503.391H271.763C269.153 503.391 266.892 501.298 266.892 498.507V482.112C266.892 479.496 268.979 477.229 271.763 477.229H395.466C398.076 477.229 400.337 479.321 400.337 482.112V498.507C400.337 501.298 398.25 503.391 395.466 503.391Z" fill="#9BBDF9"/>
<path d="M268.806 520.482H329.526" stroke="black" stroke-width="1.3" stroke-miterlimit="10" stroke-linecap="round" stroke-linejoin="round"/>
<path d="M268.806 535.309H398.598" stroke="black" stroke-width="1.3" stroke-miterlimit="10" stroke-linecap="round" stroke-linejoin="round"/>
<path d="M268.806 551.703H398.598" stroke="black" stroke-width="1.3" stroke-miterlimit="10" stroke-linecap="round" stroke-linejoin="round"/>
<path d="M493.767 754.026H403.295C397.206 754.026 392.334 749.142 392.334 743.038V664.551C392.334 658.446 397.206 653.562 403.295 653.562H493.767C499.856 653.562 504.728 658.446 504.728 664.551V743.038C504.728 749.142 499.856 754.026 493.767 754.026Z" fill="#DC761C"/>
<path d="M470.801 699.435L467.147 698.737C466.799 697.167 466.103 695.597 465.234 694.202L467.321 691.063C468.191 690.016 468.017 688.446 466.973 687.4L464.712 685.132C463.668 684.26 462.276 684.086 461.058 684.958L457.926 687.051C456.534 686.179 454.968 685.656 453.403 685.132L452.707 681.295C452.533 679.9 451.315 679.028 449.923 678.854H446.791C445.399 678.854 444.181 679.9 444.007 681.295L443.312 684.958C441.746 685.307 440.18 686.005 438.788 686.877L435.656 684.784C434.612 683.912 433.046 684.086 432.003 685.132L429.741 687.4C428.697 688.446 428.697 689.842 429.393 691.063L431.481 694.202C430.611 695.597 430.089 697.167 429.567 698.737L426.261 699.435C424.869 699.609 423.825 700.83 423.825 702.225V705.365C423.825 706.76 424.869 707.981 426.261 708.155L429.915 708.853C430.263 710.423 430.959 711.993 431.829 713.388L429.741 716.527C428.871 717.574 429.045 719.144 430.089 720.19L432.351 722.458C433.394 723.504 434.786 723.504 436.004 722.806L439.136 720.713C440.528 721.585 442.094 722.109 443.66 722.632L444.355 726.295C444.529 727.69 445.747 728.736 447.139 728.736H450.271C451.663 728.736 452.881 727.69 453.055 726.295L453.751 722.632C455.316 722.283 456.882 721.585 458.274 720.713L461.232 722.806C462.276 723.678 463.842 723.504 464.886 722.458L467.147 720.19C468.191 719.144 468.191 717.748 467.495 716.527L465.408 713.388C466.277 711.993 466.799 710.423 467.321 708.853L470.975 708.155C472.367 707.981 473.411 706.76 473.411 705.365V702.225C473.237 700.83 472.193 699.609 470.801 699.435ZM448.531 713.562C443.138 713.562 438.788 709.202 438.788 703.795C438.788 698.388 443.138 694.028 448.531 694.028C453.925 694.028 458.274 698.388 458.274 703.795C458.448 709.202 453.925 713.562 448.531 713.562Z" fill="white"/>
<path d="M599.027 219.963H669.143C686.541 219.963 700.46 205.836 700.46 188.569C700.46 171.127 686.367 157.174 669.143 157.174H599.027C581.629 157.174 567.71 171.302 567.71 188.569C567.71 205.836 581.803 219.963 599.027 219.963Z" fill="#9BBDF9"/>
<path d="M623.733 212.988L600.941 235.487L596.766 211.418L623.733 212.988Z" fill="#9BBDF9"/>
<path d="M623.559 178.452C620.253 175.313 615.034 175.313 611.902 178.627L609.814 180.72L607.727 178.627C604.421 175.487 599.201 175.487 596.07 178.801C592.938 182.115 592.938 187.348 596.244 190.487L604.247 198.51C605.465 199.731 607.205 200.603 608.77 200.778C611.38 201.126 613.99 200.429 615.904 198.336L623.907 190.138C626.865 186.999 626.865 181.766 623.559 178.452Z" fill="white"/>
<path d="M639.392 181.242H671.753" stroke="white" stroke-width="1.0186" stroke-miterlimit="10" stroke-linecap="round" stroke-linejoin="round"/>
<path d="M639.392 190.312H656.442" stroke="white" stroke-width="1.0186" stroke-miterlimit="10" stroke-linecap="round" stroke-linejoin="round"/>
<path d="M533.609 844.373L512.905 855.71C510.643 856.931 509.425 859.721 510.121 862.337C510.643 864.43 512.383 866 517.081 866C527.346 866.175 572.408 858.675 572.408 858.675V865.128L593.46 865.303C593.46 865.303 594.852 834.605 588.414 830.594L533.609 844.373Z" fill="#200902"/>
<path d="M561.099 821.699L533.435 844.373C533.435 844.373 536.915 854.663 552.748 847.861C568.58 841.059 588.24 830.768 588.24 830.768L585.283 818.908L561.099 821.699Z" fill="#ECC696"/>
<path d="M585.457 818.733L588.24 736.758L560.925 734.49V830.593L585.457 818.733Z" fill="#ECC696"/>
<path d="M536.741 490.134L548.05 809.838H601.289L603.899 464.32L536.741 490.134Z" fill="#3A2222"/>
<path d="M542.656 484.553L569.45 640.306C572.756 659.492 592.416 671.177 610.684 664.898C624.255 660.189 632.954 647.108 631.91 632.806L626.865 561.993C624.255 537.924 630.17 506.878 604.073 464.32L542.656 484.553Z" fill="#523332"/>
<path d="M683.236 836.523L671.753 857.104C670.535 859.371 670.883 862.336 672.796 864.255C674.362 865.65 676.624 866.173 680.626 863.731C689.325 858.499 723.6 828.151 723.6 828.151L727.079 833.732L745 822.569C745 822.569 729.863 795.709 722.382 795.884L683.236 836.523Z" fill="#200902"/>
<path d="M694.544 802.686L683.062 836.523C683.062 836.523 691.413 843.325 701.156 829.198C710.899 815.07 722.208 795.884 722.208 795.884L713.509 787.338L694.544 802.686Z" fill="#ECC696"/>
<path d="M713.683 787.163L672.622 716.176L648.265 728.734L699.068 810.36L713.683 787.163Z" fill="#ECC696"/>
<path d="M573.278 651.294L672.1 798.849L718.206 769.373L622.689 608.736L573.278 651.294Z" fill="#523332"/>
<path d="M499.682 231.475C499.682 231.475 477.76 228.684 474.803 249.44C472.715 264.963 479.848 272.637 474.281 285.021C468.713 297.404 479.152 308.567 479.152 308.567C479.152 308.567 505.076 320.601 533.435 295.834L499.682 231.475Z" fill="#DC761C"/>
<path d="M508.208 301.242L520.039 332.114L544.918 325.486L521.952 281.01L508.208 301.242Z" fill="#ECC696"/>
<path d="M513.949 316.067L518.995 293.219L509.773 305.079L513.949 316.067Z" fill="black"/>
<path d="M496.899 236.186C496.899 236.186 482.11 239.325 482.11 258.162C482.11 258.162 481.414 265.313 482.284 285.022C482.98 298.975 489.417 308.568 502.466 307.173C508.73 306.475 515.341 302.638 521.256 297.754L529.608 289.208C548.746 265.836 528.738 230.43 498.986 235.837C498.29 235.837 497.595 236.011 496.899 236.186Z" fill="#ECC696"/>
<path d="M483.328 274.033L478.108 283.277C477.412 284.324 477.76 285.719 479.152 285.893L485.938 286.766L483.328 274.033Z" fill="#ECC696"/>
<path d="M518.125 268.452C518.647 264.266 521.604 234.615 499.334 238.452C495.855 238.976 494.115 234.441 497.073 232.522C504.902 227.639 517.603 224.15 535.697 231.127C543.004 233.917 553.27 243.685 553.27 253.278C553.27 273.859 546.484 284.324 534.479 294.789C533.783 295.312 532.913 295.137 532.565 294.44L524.736 279.44V279.266C523.866 276.475 519.517 270.894 518.299 269.324C518.299 269.149 518.125 268.801 518.125 268.452Z" fill="#DC761C"/>
<path d="M503.336 231.127C475.499 244.033 516.211 274.556 516.211 274.556L527.694 251.882C527.694 252.057 508.034 229.034 503.336 231.127Z" fill="#DC761C"/>
<path d="M484.894 256.767L499.682 261.825C499.682 261.825 497.073 257.116 491.853 254.499C484.894 251.011 484.894 256.767 484.894 256.767Z" fill="black"/>
<path d="M488.026 266.883C488.026 266.883 492.897 267.929 493.071 272.987C493.245 277.871 487.852 277.522 487.852 277.522C487.852 277.522 483.328 271.592 488.026 266.883Z" fill="white"/>
<path d="M489.07 265.662C489.07 265.662 492.897 272.813 488.026 277.522C483.154 282.232 488.026 277.522 488.026 277.522L485.242 277.174L485.068 269.325L489.07 265.662Z" fill="black"/>
<path d="M486.808 265.662C487.678 265.662 488.374 266.011 489.244 266.185C489.939 266.534 490.635 266.883 491.331 267.406C491.853 267.93 492.375 268.627 492.723 269.325C493.071 270.023 493.245 270.72 493.419 271.418C493.419 271.592 493.419 271.767 493.245 271.767C493.071 271.767 492.897 271.767 492.897 271.592C492.723 270.895 492.375 270.371 492.027 269.674C491.679 269.15 491.157 268.627 490.635 268.278C490.113 267.93 489.417 267.581 488.896 267.581C488.2 267.406 487.504 267.406 486.982 267.406C486.46 267.406 485.938 267.057 485.938 266.534C485.764 266.185 486.112 265.662 486.808 265.662Z" fill="black"/>
<path d="M483.154 289.208C481.414 289.557 481.24 291.476 482.806 292.173C482.806 292.173 480.718 294.266 483.85 295.138C487.156 295.836 490.113 290.255 490.113 290.255C486.286 291.301 485.59 288.859 483.154 289.208Z" fill="#C7181B"/>
<path d="M520.213 281.01C521.952 293.393 520.561 307.172 520.561 307.172C520.561 307.172 555.705 318.509 571.712 278.394C571.712 278.394 561.447 274.382 558.315 265.661C555.183 256.94 558.315 226.243 517.255 227.29C517.255 227.29 518.299 267.057 520.213 281.01Z" fill="#DC761C"/>
<path d="M533.783 274.382C534.479 279.615 530.826 284.324 525.606 285.022C520.386 285.719 515.689 282.057 514.993 276.824C514.297 271.592 517.951 266.882 523.17 266.185C528.39 265.487 533.087 269.15 533.783 274.382Z" fill="#ECC696"/>
<path d="M520.213 279.615C520.213 279.615 520.561 272.463 526.476 272.289" stroke="black" stroke-width="0.5111" stroke-miterlimit="10" stroke-linecap="round" stroke-linejoin="round"/>
<path d="M581.455 349.379L639.74 396.646C648.091 403.797 648.787 416.529 641.131 424.378C634.172 431.703 622.863 432.226 615.208 425.773L552.052 375.541L581.455 349.379Z" fill="#ECC696"/>
<path d="M616.426 366.647C616.426 366.647 613.99 385.484 581.281 407.111L536.741 373.972C524.388 364.728 522.474 346.764 532.739 335.252C541.264 325.659 555.531 323.566 566.318 330.543L616.426 366.647Z" fill="#467AC9"/>
<path d="M615.382 426.472L673.144 500.947L687.237 484.378L644.089 401.705C637.13 392.286 623.211 391.24 615.034 399.786C607.9 407.286 607.901 419.146 615.382 426.472Z" fill="#ECC696"/>
<path d="M669.665 497.807L669.143 501.47C668.273 506.528 668.795 511.586 670.187 516.47L672.97 525.016C673.666 527.109 675.928 527.981 677.842 526.935C679.408 526.063 680.278 524.493 680.278 522.574L679.408 513.156L698.198 539.841C699.068 541.237 700.982 541.411 702.2 540.365L703.07 539.667C703.94 538.795 704.288 537.4 703.592 536.353L691.587 518.039L708.289 537.225C709.333 538.446 711.073 538.62 712.291 537.574L712.813 537.051C713.683 536.179 713.857 534.609 712.987 533.562L699.242 515.772L712.639 526.935C713.857 527.981 715.945 527.807 716.641 526.237L716.814 525.888C717.336 524.842 717.162 523.621 716.467 522.749L703.244 510.016L711.421 514.9C712.987 516.121 715.249 515.423 715.597 513.505C715.771 512.633 715.597 511.586 714.901 511.063L681.322 479.668L674.536 487.517C671.927 490.307 670.361 493.97 669.665 497.807Z" fill="#ECC696"/>
<path d="M536.915 324.613C536.915 324.613 513.949 322.345 513.775 363.856C513.427 405.367 526.476 425.076 536.741 490.133C536.741 490.133 575.539 485.424 604.073 464.32C603.899 464.32 605.813 311.706 536.915 324.613Z" fill="#4479FA"/>
<path d="M532.217 380.077L478.108 432.053C469.931 439.378 457.404 438.506 450.445 429.96C444.181 422.111 444.877 410.774 452.359 403.972L509.947 347.461L532.217 380.077Z" fill="#ECC696"/>
<path d="M517.603 413.042C517.603 413.042 498.638 412.344 479.326 373.799L517.429 333.334C528.042 321.997 546.136 322.346 556.227 334.032C564.752 343.625 565.1 358.101 556.923 368.043L517.603 413.042Z" fill="#4479FA"/>
<path d="M522.822 407.112L548.746 377.461" stroke="black" stroke-width="0.5111" stroke-miterlimit="10" stroke-linecap="round" stroke-linejoin="round"/>
<path d="M477.238 404.494L400.163 345.891L390.072 361.762L450.967 430.308C458.448 439.029 471.845 439.029 479.326 430.133C485.764 422.634 484.894 411.122 477.238 404.494Z" fill="#ECC696"/>
<path d="M410.255 362.112C407.297 371.879 397.902 371.53 379.285 366.298C369.542 363.507 365.889 356.531 368.846 346.763C371.804 336.996 382.069 331.415 391.812 334.38C401.729 337.171 413.212 352.345 410.255 362.112Z" fill="#ECC696"/>
<path d="M395.292 335.775L371.804 321.997C370.238 320.95 368.15 321.299 366.932 322.869C366.063 324.09 366.237 325.834 367.454 327.055L385.723 342.578L395.292 335.775Z" fill="#ECC696"/>
</g>
<defs>
<clipPath id="clip0_1325_8419">
<rect width="745" height="709" fill="white" transform="translate(0 157)"/>
</clipPath>
</defs>
</svg>
